<svg width="100" height="100" viewBox="0 0 100 100" fill="none" xmlns="http://www.w3.org/2000/svg">
<path d="M14.4999 19.7146H49.8555V100L20.9461 91.9879L14.4999 19.7146Z" fill="black" fill-opacity="0.08"/>
<path fill-rule="evenodd" clip-rule="evenodd" d="M85.211 19.7146H49.8555V34.5514L71.9317 34.5514L68.0261 79.6784L49.8555 84.7595L49.8555 100L78.7648 91.9879L85.211 19.7146ZM49.8555 75.6387L49.8555 75.6387L59.7998 72.858L60.816 61.1164H49.8555V75.6387ZM49.8555 52.3326H61.5762L62.3549 43.3352L49.8555 43.3352V52.3326Z" fill="#1BA7E2"/>
<path fill-rule="evenodd" clip-rule="evenodd" d="M14.5 19.7146L20.9462 91.9879L49.8555 100L78.7649 91.9879L85.2111 19.7146H14.5ZM79.0106 25.3867H49.8555V34.5514L27.7794 34.5514L28.5396 43.3352L49.8555 43.3352V52.3326L29.3183 52.3326L30.0786 61.1164L49.8555 61.1164V75.6387L39.9114 72.858L39.3009 65.8038H30.4843L31.6851 79.6784L49.8555 84.7594V94.1169L73.4642 87.5711L79.0106 25.3867Z" fill="#0277BD"/>
<path d="M41.559 8.98305V13.4728H29.25V0H41.559V4.48972H33.9538V8.98305H41.559Z" fill="black"/>
<path d="M70.4606 8.98306V13.4728H58.1516V8.98125L63.7052 8.98306L58.1516 4.48972V3.31435e-06H70.4606V4.48972L64.9069 4.48973L70.4606 8.98306Z" fill="black"/>
<path d="M56.0098 8.98306V13.4728H43.7008V8.98125L49.2544 8.98306L43.7008 4.48972V3.31435e-06H56.0098V4.48972L50.4561 4.48973L56.0098 8.98306Z" fill="black"/>
</svg>
