<svg width="100" height="100" viewBox="0 0 100 100" fill="none" xmlns="http://www.w3.org/2000/svg">
<path d="M33.6667 99.9998C42.8714 99.9998 50.3333 92.5379 50.3333 83.3332V66.6665H33.6667C24.4619 66.6665 17 74.1284 17 83.3332C17 92.5379 24.4619 99.9998 33.6667 99.9998Z" fill="#0ACF83"/>
<path d="M17 50.0002C17 59.2049 24.4619 66.6668 33.6667 66.6668H50.3333V33.3335H33.6667C24.4619 33.3335 17 40.7954 17 50.0002Z" fill="#A259FF"/>
<path d="M17 16.6667C17 25.8714 24.4619 33.3333 33.6667 33.3333H50.3333V0H33.6667C24.4619 0 17 7.46192 17 16.6667Z" fill="#F24E1E"/>
<ellipse cx="66.9997" cy="50.0002" rx="16.6667" ry="16.6667" fill="#19BCFE"/>
<path d="M66.9997 33.3333C76.2044 33.3333 83.6663 25.8714 83.6663 16.6667C83.6663 7.46192 76.2044 0 66.9997 0H50.333V33.3333H66.9997Z" fill="#FF7262"/>
</svg>
