<svg width="100" height="100" viewBox="0 0 100 100" fill="none" xmlns="http://www.w3.org/2000/svg">
<path d="M54.6236 1.91515C52.0702 -0.638382 47.9298 -0.638382 45.3764 1.91515L36.4195 10.8721L47.9531 22.4057C50.5512 21.6084 53.4928 22.2375 55.5482 24.293C57.6038 26.3484 58.2328 29.2901 57.4357 31.888L68.8515 43.304C71.4494 42.5067 74.3913 43.1358 76.4466 45.1913C79.4087 48.1534 79.4087 52.9558 76.4466 55.9179C73.4846 58.88 68.6822 58.88 65.7201 55.9179C63.5087 53.7066 62.9484 50.4695 64.0387 47.7383L53.7924 37.492V64.6726C54.4039 65.0096 54.9786 65.4373 55.4971 65.9557C58.4591 68.9177 58.4591 73.7202 55.4971 76.6823C52.535 79.6443 47.7327 79.6443 44.7706 76.6823C41.8085 73.7202 41.8085 68.9177 44.7706 65.9557C45.5042 65.2222 46.3504 64.6703 47.2538 64.3V36.6541C46.3695 36.2842 45.5412 35.7393 44.8217 35.0196C42.6103 32.8083 42.0499 29.5712 43.1403 26.8399L31.7959 15.4955L1.91524 45.3764C-0.638414 47.9299 -0.638414 52.0699 1.91524 54.6235L45.3764 98.0847C47.9298 100.638 52.0702 100.638 54.6236 98.0847L98.0848 54.6235C100.638 52.0699 100.638 47.9299 98.0848 45.3764L54.6236 1.91515Z" fill="#F05033"/>
</svg>
