<svg width="100" height="100" viewBox="0 0 100 100" fill="none" xmlns="http://www.w3.org/2000/svg">
<circle cx="50" cy="50" r="50" fill="white"/>
<path fill-rule="evenodd" clip-rule="evenodd" d="M49.9969 8.70291e-05C22.388 8.70291e-05 0.00308228 22.385 0.00308228 50.0001C0.00308228 72.0903 14.3278 90.8288 34.1958 97.4433C36.6974 97.9006 37.609 96.3567 37.609 95.0308C37.609 93.846 37.566 90.6999 37.5414 86.5286C23.6341 89.5489 20.6998 79.8251 20.6998 79.8251C18.4254 74.0516 15.1473 72.5139 15.1473 72.5139C10.6077 69.4107 15.4911 69.4721 15.4911 69.4721C20.5095 69.8282 23.1492 74.6256 23.1492 74.6256C27.609 82.2653 34.8527 80.0584 37.701 78.7815C38.1553 75.5495 39.4444 73.3457 40.8748 72.0964C29.7729 70.8349 18.1001 66.544 18.1001 47.385C18.1001 41.9276 20.0491 37.4648 23.2474 33.9688C22.7317 32.7042 21.016 27.6213 23.7354 20.7367C23.7354 20.7367 27.9343 19.3923 37.4862 25.8626C41.4733 24.7545 45.752 24.199 50.0031 24.1806C54.248 24.199 58.5267 24.7545 62.5199 25.8626C72.0657 19.3923 76.2554 20.7367 76.2554 20.7367C78.984 27.6213 77.2683 32.7042 76.7526 33.9688C79.957 37.4648 81.8938 41.9276 81.8938 47.385C81.8938 66.5931 70.2026 70.8196 59.0638 72.0565C60.8594 73.6004 62.4586 76.6514 62.4586 81.3168C62.4586 87.9988 62.3972 93.3917 62.3972 95.0308C62.3972 96.369 63.2965 97.9252 65.8349 97.4371C85.6875 90.8104 100 72.0842 100 50.0001C100 22.385 77.612 8.70291e-05 49.9969 8.70291e-05Z" fill="#1B1817"/>
</svg>
