<svg width="100" height="100" viewBox="0 0 100 100" fill="none" xmlns="http://www.w3.org/2000/svg">
<circle cx="50" cy="50" r="50" fill="white"/>
<path fill-rule="evenodd" clip-rule="evenodd" d="M49.9956 2C23.4902 2 2 23.575 2 50.1909C2 71.4819 15.7522 89.5424 34.8261 95.9176C37.2276 96.3583 38.1028 94.8703 38.1028 93.5923C38.1028 92.4504 38.0615 89.4181 38.0379 85.3978C24.6865 88.3088 21.8695 78.9368 21.8695 78.9368C19.686 73.3723 16.5389 71.8901 16.5389 71.8901C12.1808 68.8993 16.869 68.9585 16.869 68.9585C21.6868 69.3016 24.2209 73.9255 24.2209 73.9255C28.5025 81.2887 35.4566 79.1617 38.1912 77.931C38.6273 74.8159 39.8649 72.6918 41.238 71.4878C30.5799 70.2719 19.3736 66.1362 19.3736 47.6704C19.3736 42.4106 21.2448 38.1092 24.3152 34.7397C23.8202 33.5208 22.173 28.6219 24.7838 21.9864C24.7838 21.9864 28.8148 20.6906 37.9849 26.9267C41.8126 25.8588 45.9203 25.3233 50.0015 25.3056C54.0767 25.3233 58.1844 25.8588 62.018 26.9267C71.1822 20.6906 75.2045 21.9864 75.2045 21.9864C77.8241 28.6219 76.1769 33.5208 75.6818 34.7397C78.7582 38.1092 80.6175 42.4106 80.6175 47.6704C80.6175 66.1836 69.3936 70.2572 58.7001 71.4494C60.4239 72.9374 61.9591 75.8779 61.9591 80.3746C61.9591 86.8148 61.9002 92.0126 61.9002 93.5923C61.9002 94.8822 62.7636 96.382 65.2005 95.9116C84.2596 89.5246 98 71.476 98 50.1909C98 23.575 76.5069 2 49.9956 2Z" fill="#1B1817"/>
</svg>
