<svg width="100" height="100" viewBox="0 0 100 100" fill="none" xmlns="http://www.w3.org/2000/svg">
<path d="M14.4999 19.7146H49.8555V100L20.9461 91.9879L14.4999 19.7146Z" fill="black" fill-opacity="0.08"/>
<path fill-rule="evenodd" clip-rule="evenodd" d="M85.211 19.7146H49.8555V34.5514L71.9317 34.5514L71.1715 43.3352L49.8555 43.3352V52.3326L70.3927 52.3326L68.026 79.6784L49.8555 84.7595L49.8555 100L78.7648 91.9879L85.211 19.7146ZM49.8555 75.6388L59.7997 72.8581L60.8159 61.1164H49.8555L49.8555 75.6388Z" fill="#F16529"/>
<path fill-rule="evenodd" clip-rule="evenodd" d="M14.5 19.7146L20.9462 91.9879L49.8555 100L78.7649 91.9879L85.2111 19.7146H14.5ZM79.0106 25.3867H49.8555V34.5514L27.7793 34.5514L30.0785 61.1164H49.8555L49.8555 75.6388L39.9113 72.858L39.3007 65.8038H30.4841L31.685 79.6784L49.8555 84.7595L49.8555 94.1169L73.4642 87.5711L79.0106 25.3867ZM49.8555 52.3326V43.3352L37.3561 43.3352L38.1348 52.3326H49.8555Z" fill="#E44D26"/>
<path d="M67.7459 0H72.0495V8.98305H78.6559V13.4728H67.7459V0Z" fill="black"/>
<path d="M65.6042 0V13.4728H61.3006V6.73639L58.0759 11.5199L54.8512 6.73639V13.4728H50.5476V0H55.2475L58.0759 4.68317L60.9044 0H65.6042Z" fill="black"/>
<path d="M44.4031 13.4728H40.0996V4.48972H36.0968V0H48.4059V4.48972H44.4031V13.4728Z" fill="black"/>
<path d="M21.0552 0H25.3587V4.48679H29.6511V0H33.9547V13.4728H29.6511V8.98597H25.3587V13.4728H21.0552V0Z" fill="black"/>
</svg>
