<svg width="100" height="101" viewBox="0 0 100 101" fill="none" xmlns="http://www.w3.org/2000/svg">
<path d="M60.0833 0.999908C62.3698 3.60349 63.1245 7.32602 62.4671 10.6836C61.7616 14.4548 59.6692 17.788 57.212 20.659C55.2413 22.9704 52.9783 25.0141 50.6185 26.9119C47.8692 29.126 45.1685 31.5103 43.4411 34.6246C41.9813 37.155 41.6407 40.2692 42.6382 43.0186C44.2683 47.7386 48.0639 51.2422 50.1319 55.6946C47.8449 53.6752 45.6065 51.5828 43.5141 49.3688C41.3244 47.0331 39.2563 44.5514 37.8938 41.6317C36.9692 39.588 36.5556 37.2036 37.2612 35.0382C37.9668 32.8242 39.5483 31.0481 41.1297 29.3936C45.5335 24.9898 50.9594 21.7539 55.2656 17.2771C57.6502 14.8198 59.6207 11.8758 60.3017 8.49387C60.8616 6.01218 60.5939 3.45751 60.0833 0.999908Z" fill="#EA232D" stroke="#EA232D" stroke-width="0.12"/>
<path d="M56.482 28.7126C61.202 25.2333 66.7248 23.0193 72.3207 21.4135C67.8929 24.2358 63.2701 26.8148 59.45 30.44C58.0634 31.7782 56.7493 33.311 56.1411 35.1844C55.6788 36.5712 55.8737 38.1041 56.4335 39.4179C57.4552 41.7536 59.1824 43.6514 60.4965 45.7924C61.6154 47.6172 61.8103 49.9529 60.9587 51.9237C59.669 54.819 57.1386 56.9357 54.5112 58.6145C54.1706 58.8091 53.8789 59.1741 53.4648 59.2227C55.217 57.6413 56.5793 55.4029 56.5304 52.9942C56.482 51.1938 55.4844 49.6123 54.3163 48.3228C51.9076 45.4518 49.8884 41.8023 50.3021 37.9337C50.7159 34.0652 53.4891 30.9509 56.482 28.7126Z" fill="#EA232D"/>
<path d="M56.482 28.7126C61.202 25.2333 66.7248 23.0193 72.3207 21.4135C67.8929 24.2358 63.2701 26.8148 59.45 30.44C58.0634 31.7782 56.7493 33.311 56.1411 35.1844C55.6788 36.5712 55.8737 38.1041 56.4335 39.4179C57.4552 41.7536 59.1824 43.6514 60.4965 45.7924C61.6154 47.6172 61.8103 49.9529 60.9587 51.9237C59.669 54.819 57.1386 56.9357 54.5112 58.6145C54.1706 58.8091 53.8789 59.1741 53.4648 59.2227C55.217 57.6413 56.5793 55.4029 56.5304 52.9942C56.482 51.1938 55.4844 49.6123 54.3163 48.3228C51.9076 45.4518 49.8884 41.8023 50.3021 37.9337C50.7159 34.0652 53.4891 30.9509 56.482 28.7126" stroke="#EA232D" stroke-width="0.12"/>
<path d="M73.2213 56.8382C74.243 55.5974 75.8729 55.2811 77.3575 55.0864C79.9363 54.7458 82.6853 55.4027 84.6318 57.1788C86.2381 58.6143 87.138 60.8527 86.7972 63.0181C86.4322 65.5241 84.7534 67.6165 82.8559 69.198C79.4256 71.9473 75.1919 73.5531 70.9584 74.6239C71.2017 74.3558 71.4691 74.1125 71.7856 73.9181C74.997 72.1906 78.1842 70.1712 80.5445 67.3489C81.9803 65.5971 83.0992 63.3101 82.6369 60.9987C82.1503 58.3224 79.5472 56.3759 76.895 56.23C75.6296 56.1083 74.4379 56.5949 73.2213 56.8382Z" fill="#3471C1"/>
<path d="M73.2213 56.8382C74.243 55.5974 75.8729 55.2811 77.3575 55.0864C79.9363 54.7458 82.6853 55.4027 84.6318 57.1788C86.2381 58.6143 87.138 60.8527 86.7972 63.0181C86.4322 65.5241 84.7534 67.6165 82.8559 69.198C79.4256 71.9473 75.1919 73.5531 70.9584 74.6239C71.2017 74.3558 71.4691 74.1125 71.7856 73.9181C74.997 72.1906 78.1842 70.1712 80.5445 67.3489C81.9803 65.5971 83.0992 63.3101 82.6369 60.9987C82.1503 58.3224 79.5472 56.3759 76.895 56.23C75.6296 56.1083 74.4379 56.5949 73.2213 56.8382" stroke="#3471C1" stroke-width="0.12"/>
<path d="M24.3172 59.0524C28.794 57.1303 33.66 55.8895 38.5506 55.9625C35.7039 56.7897 32.7842 57.4953 30.1079 58.7604C29.4753 59.1011 28.7454 59.4174 28.3804 60.0743C28.1857 60.5852 28.7211 60.9258 29.1104 61.0961C30.7647 61.7774 32.5895 61.8747 34.3657 62.045C40.5943 62.4586 46.8472 62.2153 53.0514 61.8261C59.1824 61.4368 65.265 60.6095 71.3235 59.6363C69.9853 60.2689 68.6228 60.9015 67.3822 61.7044C66.7491 62.1424 65.9708 62.264 65.265 62.4343C57.8201 64.0888 50.1804 64.5997 42.5894 64.7214C39.6454 64.7457 36.7258 64.697 33.806 64.5024C30.5458 64.2834 27.2613 64.0401 24.0739 63.1886C23.1494 62.9209 22.1762 62.629 21.4463 61.972C21.0814 61.6801 21.0814 61.0961 21.3976 60.7555C22.2006 59.9283 23.3196 59.539 24.3172 59.0524Z" fill="#3471C1" stroke="#3471C1" stroke-width="0.12"/>
<path d="M30.0594 69.4414C31.3246 68.4438 32.833 67.8843 34.3415 67.349C33.8549 67.9329 33.1736 68.4925 33.125 69.2954C33.1007 69.8063 33.5143 70.1956 33.9278 70.4389C34.7308 70.8525 35.6311 70.9985 36.5313 71.1202C41.2027 71.6068 45.9228 71.8744 50.6429 71.5581C54.9491 71.3392 59.2317 70.6336 63.4895 69.8793C64.6569 70.9742 66.0442 71.7284 67.504 72.3854C62.3698 73.8938 57.0904 74.7697 51.7862 75.1831C46.7744 75.524 41.6893 75.4996 36.7016 74.6965C34.7308 74.3315 32.7113 73.9182 30.911 72.9936C30.1811 72.6043 29.3538 72.0934 29.1349 71.2418C28.9889 70.5119 29.524 69.855 30.0594 69.4414Z" fill="#3471C1" stroke="#3471C1" stroke-width="0.12"/>
<path d="M32.8818 80.049C34.001 79.149 35.3878 78.6867 36.7503 78.2974C36.3124 78.7108 35.5338 79.2217 35.8744 79.9273C36.5314 80.7789 37.7479 80.8764 38.7211 81.0954C42.8329 81.6063 46.9934 81.947 51.1052 81.6304C54.2192 81.4363 57.2853 80.8764 60.3266 80.3414C62.0782 81.363 63.9029 82.2387 65.7761 83.0177C62.9054 84.3067 59.8152 85.1342 56.7255 85.7181C51.5186 86.6425 46.1418 86.7641 40.9108 85.9374C38.5994 85.5233 36.2394 84.9882 34.1468 83.8445C33.344 83.3827 32.4925 82.8469 32.1519 81.947C31.8842 81.2414 32.3221 80.4871 32.8818 80.049Z" fill="#3471C1" stroke="#3471C1" stroke-width="0.12"/>
<path d="M19.3782 86.9348C21.6165 86.1808 23.9279 85.5725 26.288 85.4993C27.2368 85.4749 28.21 85.5234 29.0373 86.01C26.215 86.1808 23.3927 86.8858 20.8624 88.1756C20.3027 88.4921 19.6701 88.8571 19.4511 89.5138C19.4511 90.2678 20.3027 90.5111 20.8624 90.7544C24.3903 92.0684 28.1615 92.4818 31.8596 92.8716C42.8813 93.7956 53.9757 93.5523 64.9976 92.555C69.1578 92.0925 73.3431 91.6303 77.3817 90.487C78.671 90.0488 80.1308 89.6111 80.9823 88.4673C81.4938 87.7863 81.1529 86.9348 80.6422 86.3508C81.4689 86.8131 82.637 87.3973 82.467 88.5162C82.1504 89.6838 80.958 90.2921 79.9848 90.8519C76.871 92.4334 73.4399 93.2365 70.0337 93.9416C60.1315 95.8881 49.9858 96.3262 39.913 96.0345C32.3218 95.7664 24.7309 95.0365 17.2371 93.7472C15.8989 93.4307 14.3905 93.1633 13.4173 92.1169C12.7847 91.387 13.3442 90.3653 13.9525 89.8303C15.4854 88.4189 17.4561 87.6406 19.3782 86.9348Z" fill="#3471C1"/>
<path d="M19.3782 86.9348C21.6165 86.1808 23.9279 85.5725 26.288 85.4993C27.2368 85.4749 28.21 85.5234 29.0373 86.01C26.215 86.1808 23.3927 86.8858 20.8624 88.1756C20.3027 88.4921 19.6701 88.8571 19.4511 89.5138C19.4511 90.2678 20.3027 90.5111 20.8624 90.7544C24.3903 92.0684 28.1615 92.4818 31.8596 92.8716C42.8813 93.7956 53.9757 93.5523 64.9976 92.555C69.1578 92.0925 73.3431 91.6303 77.3817 90.487C78.671 90.0488 80.1308 89.6111 80.9823 88.4673C81.4938 87.7863 81.1529 86.9348 80.6422 86.3508C81.4689 86.8131 82.637 87.3973 82.467 88.5162C82.1504 89.6838 80.958 90.2921 79.9848 90.8519C76.871 92.4334 73.4399 93.2365 70.0337 93.9416C60.1315 95.8881 49.9858 96.3262 39.913 96.0345C32.3218 95.7664 24.7309 95.0365 17.2371 93.7472C15.8989 93.4307 14.3905 93.1633 13.4173 92.1169C12.7847 91.387 13.3442 90.3653 13.9525 89.8303C15.4854 88.4189 17.4561 87.6406 19.3782 86.9348" stroke="#3471C1" stroke-width="0.12"/>
<path d="M80.0093 95.2555C82.4671 94.4039 85.0943 93.504 86.9191 91.5575C86.6033 93.674 84.7785 95.1339 82.9778 96.083C79.5227 97.8834 75.6547 98.7109 71.8102 99.3917C63.6837 100.681 55.4357 100.997 47.188 100.851C41.5677 100.681 35.8987 100.462 30.3756 99.2943C29.0618 98.9294 27.6507 98.6861 26.5071 97.9078C31.4219 98.735 36.4097 99.0759 41.3974 99.27C49.5967 99.5133 57.8203 99.1975 65.971 98.1751C70.691 97.5185 75.4354 96.7153 80.0093 95.2555Z" fill="#3471C1"/>
<path d="M80.0093 95.2555C82.4671 94.4039 85.0943 93.504 86.9191 91.5575C86.6033 93.674 84.7785 95.1339 82.9778 96.083C79.5227 97.8834 75.6547 98.7109 71.8102 99.3917C63.6837 100.681 55.4357 100.997 47.188 100.851C41.5677 100.681 35.8987 100.462 30.3756 99.2943C29.0618 98.9294 27.6507 98.6861 26.5071 97.9078C31.4219 98.735 36.4097 99.0759 41.3974 99.27C49.5967 99.5133 57.8203 99.1975 65.971 98.1751C70.691 97.5185 75.4354 96.7153 80.0093 95.2555" stroke="#3471C1" stroke-width="0.12"/>
</svg>
