<svg width="100" height="100" viewBox="0 0 100 100" fill="none" xmlns="http://www.w3.org/2000/svg">
<path d="M100 0H0V100H100V0Z" fill="#F0DB4F"/>
<path d="M26.2935 83.5672L33.9462 78.9358C35.4226 81.5535 36.7657 83.7682 39.9871 83.7682C43.075 83.7682 45.0218 82.5603 45.0218 77.8618V45.9094H54.4193V77.9948C54.4193 87.7281 48.7139 92.1585 40.3899 92.1585C32.8722 92.1585 28.5085 88.265 26.2935 83.5664" fill="#323330"/>
<path d="M59.5236 82.5602L67.1754 78.1299C69.1897 81.4194 71.8076 83.8358 76.4391 83.8358C80.333 83.8358 82.8159 81.889 82.8159 79.2039C82.8159 75.9819 80.2653 74.8406 75.9691 72.9616L73.6203 71.9541C66.8401 69.0682 62.3425 65.4434 62.3425 57.791C62.3425 50.7428 67.7125 45.3723 76.1036 45.3723C82.0778 45.3723 86.3738 47.4535 89.4613 52.8908L82.1445 57.5894C80.5334 54.7033 78.7885 53.5622 76.1036 53.5622C73.3514 53.5622 71.606 55.3075 71.606 57.5894C71.606 60.4089 73.3514 61.5501 77.3786 63.2956L79.7278 64.3023C87.7159 67.7259 92.2135 71.2162 92.2135 79.0696C92.2135 87.5279 85.5681 92.1593 76.6405 92.1593C67.9141 92.1593 62.2754 87.9977 59.5236 82.5602Z" fill="#323330"/>
</svg>
