<svg width="100" height="100" viewBox="0 0 100 100" fill="none" xmlns="http://www.w3.org/2000/svg">
<g clip-path="url(#clip0_1006_324)">
<path d="M52.254 0.628198C50.7649 -0.209399 48.9967 -0.209399 47.5076 0.628198L8.32666 23.2433C6.8376 24.0809 6 25.663 6 27.3382V72.6615C6 74.3367 6.93066 75.9189 8.32666 76.7565L47.5076 99.3716C48.9967 100.209 50.7649 100.209 52.254 99.3716L91.4349 76.7565C92.924 75.9189 93.7616 74.3367 93.7616 72.6615V27.3382C93.7616 25.663 92.8309 24.0809 91.4349 23.2433L52.254 0.628198Z" fill="url(#paint0_linear_1006_324)"/>
<path d="M71.8505 11.9396L52.1607 0.628479C51.7884 0.442346 51.3231 0.256213 50.9508 0.163147L6.9635 75.517C7.33383 76.0137 7.79662 76.4389 8.32644 76.7568L47.5074 99.3719C48.6577 100.019 49.9747 100.166 51.2008 99.8135L92.5498 24.1774C92.228 23.8111 91.8521 23.4941 91.4347 23.2436L71.8505 11.9396Z" fill="url(#paint1_linear_1006_324)"/>
<path d="M50.4533 99.9651C51.0733 99.8898 51.6838 99.692 52.2533 99.3716L91.4343 76.7565C92.7101 76.0388 93.5077 74.7746 93.7099 73.3736L50.7729 0.084546C49.6727 -0.125458 48.5246 0.0557591 47.5069 0.628197L8.36481 23.2209L50.4533 99.9651Z" fill="url(#paint2_linear_1006_324)"/>
</g>
<defs>
<linearGradient id="paint0_linear_1006_324" x1="65.8433" y1="17.4868" x2="22.8956" y2="84.9676" gradientUnits="userSpaceOnUse">
<stop stop-color="#41873F"/>
<stop offset="0.3288" stop-color="#418B3D"/>
<stop offset="0.6352" stop-color="#419637"/>
<stop offset="0.9319" stop-color="#3FA92D"/>
<stop offset="1" stop-color="#3FAE2A"/>
</linearGradient>
<linearGradient id="paint1_linear_1006_324" x1="43.9315" y1="55.3081" x2="151.487" y2="-3.12658" gradientUnits="userSpaceOnUse">
<stop offset="0.1376" stop-color="#41873F"/>
<stop offset="0.4032" stop-color="#54A044"/>
<stop offset="0.7136" stop-color="#66B848"/>
<stop offset="0.9081" stop-color="#6CC04A"/>
</linearGradient>
<linearGradient id="paint2_linear_1006_324" x1="4.56834" y1="50.0013" x2="95.2308" y2="50.0013" gradientUnits="userSpaceOnUse">
<stop offset="0.0919165" stop-color="#6CC04A"/>
<stop offset="0.2864" stop-color="#66B848"/>
<stop offset="0.5968" stop-color="#54A044"/>
<stop offset="0.8624" stop-color="#41873F"/>
</linearGradient>
<clipPath id="clip0_1006_324">
<rect width="100" height="100" fill="white"/>
</clipPath>
</defs>
</svg>
