<svg width="100" height="100" viewBox="0 0 100 100" fill="none" xmlns="http://www.w3.org/2000/svg">
<path fill-rule="evenodd" clip-rule="evenodd" d="M100 49.9999C100 74.2617 88.0661 74.2617 88.0661 74.2617H50.0004V77.7312H74.262V88.0659C74.262 88.0659 74.262 99.9999 50.0004 99.9999C25.7388 99.9999 25.7388 88.0659 25.7388 88.0659V63.804C25.7388 57.0092 31.2471 51.5009 38.0419 51.5009H64.9609C71.7557 51.5009 77.264 45.9925 77.264 39.1977V25.7381H88.0661C88.0661 25.7381 100 25.7381 100 49.9999ZM59.3754 87.9428C59.3754 85.5238 61.3363 83.5629 63.7552 83.5629C66.1742 83.5629 68.1351 85.5238 68.1351 87.9428C68.1351 90.3618 66.1742 92.3227 63.7552 92.3227C61.3363 92.3227 59.3754 90.3618 59.3754 87.9428Z" fill="url(#paint0_linear_979_100)"/>
<path fill-rule="evenodd" clip-rule="evenodd" d="M7.62939e-05 50C7.62939e-05 25.7382 11.934 25.7382 11.934 25.7382H49.9997V22.2687H25.7381V11.934C25.7381 11.934 25.7381 -3.05176e-05 49.9997 -3.05176e-05C74.2613 -3.05176e-05 74.2613 11.934 74.2613 11.934V36.1959C74.2613 42.9907 68.7531 48.499 61.9583 48.499H35.0392C28.2444 48.499 22.7361 54.0074 22.7361 60.8022V74.2618H11.934C11.934 74.2618 7.62939e-05 74.2619 7.62939e-05 50ZM40.6248 12.0571C40.6248 14.4761 38.6638 16.437 36.2449 16.437C33.8259 16.437 31.865 14.4761 31.865 12.0571C31.865 9.63813 33.8259 7.67717 36.2449 7.67717C38.6638 7.67717 40.6248 9.63813 40.6248 12.0571Z" fill="url(#paint1_linear_979_100)"/>
<defs>
<linearGradient id="paint0_linear_979_100" x1="25.7379" y1="66.8675" x2="99.9991" y2="66.8675" gradientUnits="userSpaceOnUse">
<stop stop-color="#FFDB4D"/>
<stop offset="0.326708" stop-color="#FCCB3D"/>
</linearGradient>
<linearGradient id="paint1_linear_979_100" x1="8.54619e-05" y1="37.1309" x2="74.2613" y2="37.1309" gradientUnits="userSpaceOnUse">
<stop offset="0.673294" stop-color="#3778AD"/>
<stop offset="1" stop-color="#366D9A"/>
</linearGradient>
</defs>
</svg>
