<svg width="100" height="100" viewBox="0 0 100 100" fill="none" xmlns="http://www.w3.org/2000/svg">
<path d="M0 7.8125C0 3.49778 3.49778 0 7.8125 0H92.1875C96.5022 0 100 3.49778 100 7.8125V92.1875C100 96.5022 96.5022 100 92.1875 100H7.8125C3.49778 100 0 96.5022 0 92.1875V7.8125Z" fill="#3178C6"/>
<path d="M54.8238 51.4265H40.8599V91.4062H29.798V51.4265H15.9024V42.4473H54.8238V51.4265Z" fill="white"/>
<path d="M58.4606 89.5285V78.6032C60.4408 80.2647 62.5917 81.5166 64.9133 82.3587C67.2349 83.1781 69.5793 83.5878 71.9465 83.5878C73.3349 83.5878 74.5412 83.4626 75.5655 83.2123C76.6125 82.9619 77.4774 82.6205 78.1602 82.188C78.8658 81.7328 79.3893 81.2093 79.7307 80.6175C80.0721 80.003 80.2429 79.3429 80.2429 78.6373C80.2429 77.6813 79.9697 76.8278 79.4235 76.0767C78.8772 75.3256 78.1261 74.6314 77.1701 73.994C76.2369 73.3567 75.1216 72.7422 73.8242 72.1504C72.5269 71.5586 71.1271 70.9555 69.6248 70.3409C65.801 68.7476 62.9445 66.8016 61.0553 64.5027C59.1889 62.2038 58.2557 59.427 58.2557 56.1722C58.2557 53.6229 58.7678 51.4379 59.7921 49.617C60.8163 47.7733 62.2047 46.2597 63.9573 45.0762C65.7327 43.8926 67.7812 43.0277 70.1028 42.4814C72.4244 41.9124 74.8826 41.6279 77.4774 41.6279C80.0266 41.6279 82.28 41.7872 84.2374 42.1059C86.2176 42.4017 88.0385 42.8683 89.7001 43.5057V53.714C88.8807 53.1449 87.9816 52.6442 87.0029 52.2117C86.0469 51.7793 85.0568 51.4265 84.0326 51.1534C83.0083 50.8575 81.9841 50.6412 80.9598 50.5047C79.9583 50.3681 79.0024 50.2998 78.0919 50.2998C76.8401 50.2998 75.702 50.425 74.6778 50.6754C73.6535 50.903 72.7886 51.233 72.083 51.6655C71.3774 52.0979 70.8312 52.6214 70.4442 53.236C70.0573 53.8278 69.8638 54.4992 69.8638 55.2503C69.8638 56.0697 70.0801 56.8095 70.5125 57.4695C70.945 58.1069 71.5595 58.7214 72.3562 59.3132C73.1528 59.8822 74.1201 60.4512 75.2582 61.0203C76.3962 61.5665 77.6822 62.1356 79.1162 62.7273C81.0736 63.5467 82.8262 64.423 84.374 65.3562C85.9445 66.2667 87.2874 67.3023 88.4027 68.4631C89.518 69.6239 90.3715 70.9555 90.9633 72.4577C91.5551 73.9371 91.851 75.667 91.851 77.6472C91.851 80.3785 91.3275 82.6774 90.2805 84.5438C89.2562 86.3874 87.8564 87.8897 86.0811 89.0505C84.3057 90.1885 82.2344 91.0079 79.8673 91.5087C77.5229 92.0094 75.042 92.2598 72.4244 92.2598C69.7386 92.2598 67.178 92.0322 64.7426 91.5769C62.3299 91.1217 60.2359 90.4389 58.4606 89.5285Z" fill="white"/>
</svg>
