<svg xmlns="http://www.w3.org/2000/svg" xmlns:xlink="http://www.w3.org/1999/xlink" width="40" height="40" fill="none"><g clip-path="url(#I)"><g filter="url(#A)"><path d="M36.201 1.567H3.796a3 3 0 0 0-2.996 3v30.822a3 3 0 0 0 2.996 3h32.405a3 3 0 0 0 2.995-3V4.567a3 3 0 0 0-2.995-3z" fill="#000"/></g><path d="M35.2 6.4h4v24.4h-4V6.4z" fill="url(#B)"/><path d="M33.6 1.6H4V4h29.6V1.6z" fill="#f3f3f3"/><path d="M3.408 7.6L.8 6.69V4.582c.128-1.923 1.697-2.982 2.909-2.982l.554-.001.937 3.895L3.408 7.6z" fill="url(#C)"/><path d="M35.089 9.2L39.2 6.678V4.432c-.096-1.054-.964-2.742-3.104-2.832l-2.829.001-.067 5.528L35.089 9.2z" fill="url(#D)"/><path d="M34.627 29.6l4.573.9v5.057c-.093 1.058-.933 2.754-3.002 2.844h-2.449l-.949-6.72 1.827-2.08z" fill="url(#E)"/><path d="M5.298 30.885L.8 30.4v5.054c.132 1.9 1.748 2.946 2.996 2.946h2.503L8.4 33.159l-3.102-2.274z" fill="url(#F)"/><path d="M34 31.2H6.4v7.2H34v-7.2z" fill="#b7b7b7"/><path d="M4 6.4H.8v25.2H4V6.4z" fill="url(#G)"/><path d="M33.795 3.2H6.205C4.766 3.2 3.6 4.367 3.6 5.807v26.786c0 1.44 1.166 2.607 2.605 2.607h27.591c1.438 0 2.605-1.167 2.605-2.607V5.807c0-1.44-1.166-2.607-2.605-2.607z" fill="url(#H)"/><g fill="#000"><path d="M22.177 26.509h-3.954V23.2H17.2v8h1.023v-3.733h3.954V31.2H23.2v-8h-1.023v3.309zm4.014 1.883l1.155-1.203 2.566 4.011H31.2l-3.138-4.769 3.056-3.231h-1.37l-3.557 3.877V23.2H25.2v8h.991v-2.808zm-12.582.48l.799 2.329H15.6l-2.925-8h-1.237l-3.037 8h1.125l.844-2.329h3.24zm-2.903-.958L12 24.392h.022l1.193 3.521h-2.509z"/></g></g><defs><filter id="A" x="-.409" y=".358" width="40.815" height="39.24" filterUnits="userSpaceOnUse" color-interpolation-filters="sRGB"><feFlood flood-opacity="0"/><feBlend in="SourceGraphic"/><feGaussianBlur stdDeviation=".605"/></filter><linearGradient id="B" x1="39.2" y1="30.8" x2="35.747" y2="6.323" xlink:href="#J"><stop stop-color="#cfd0d1"/><stop offset="1" stop-color="#dbdbdb"/></linearGradient><linearGradient id="C" x1="2.91" y1="6.972" x2="5.517" y2="5.265" xlink:href="#J"><stop stop-color="#dbdbdb"/><stop offset="1" stop-color="#f3f3f3"/></linearGradient><linearGradient id="D" x1="35.99" y1="6.137" x2="34.156" y2="3.411" xlink:href="#J"><stop stop-color="#dbdbdb"/><stop offset="1" stop-color="#f3f3f3"/></linearGradient><linearGradient id="E" x1="37.049" y1="33.195" x2="34.441" y2="34.956" xlink:href="#J"><stop stop-color="#cfd0d1"/><stop offset="1" stop-color="#b7b7b7"/></linearGradient><linearGradient id="F" x1="2.972" y1="33.094" x2="5.589" y2="34.88" xlink:href="#J"><stop stop-color="#cfd0d1"/><stop offset="1" stop-color="#b7b7b7"/></linearGradient><linearGradient id="G" x1=".8" y1="31.6" x2="5.346" y2="6.645" xlink:href="#J"><stop stop-color="#cfd0d1"/><stop offset="1" stop-color="#dbdbdb"/></linearGradient><linearGradient id="H" x1="3.6" y1="19.2" x2="20" y2="19.2" xlink:href="#J"><stop stop-color="#f4f5f7"/><stop offset="1" stop-color="#e9eaeb"/></linearGradient><clipPath id="I"><path fill="#fff" d="M0 0h40v40H0z"/></clipPath><linearGradient id="J" gradientUnits="userSpaceOnUse"/></defs></svg>