<svg width="40" height="40" viewBox="0 0 40 40" fill="none" xmlns="http://www.w3.org/2000/svg">
<path d="M5.85803 7.88574H20.0002V39.9999L8.43651 36.7951L5.85803 7.88574Z" fill="black" fill-opacity="0.08"/>
<path fill-rule="evenodd" clip-rule="evenodd" d="M34.1422 7.88574H20V13.8204H28.8305L27.2682 31.8712L20 33.9037L20 39.9999L31.5637 36.7951L34.1422 7.88574ZM20 30.2554L23.9777 29.1431L24.3842 24.4464H20L20 30.2554ZM20 20.9329H24.6883L24.9998 17.3339L20 17.3339V20.9329Z" fill="#1BA7E2"/>
<path fill-rule="evenodd" clip-rule="evenodd" d="M5.85791 7.88574L8.43639 36.7951L20.0001 39.9999L31.5639 36.7951L34.1423 7.88574H5.85791ZM31.6621 10.1546H20.0001V13.8204H11.1696L11.4737 17.3339L20.0001 17.3339V20.9329H11.7852L12.0893 24.4464H20.0001L20.0001 30.2554L16.0224 29.1431L15.7782 26.3214H12.2516L12.7319 31.8712L20.0001 33.9037L20.0001 37.6467L29.4436 35.0284L31.6621 10.1546Z" fill="#006EBD"/>
<path d="M16.6817 3.59323V5.38911H11.7581V4.27754e-06H16.6817V1.79589H13.6396V3.59323H16.6817Z" fill="white"/>
<path d="M28.2422 3.59322V5.38911H23.3186V3.5925L25.5401 3.59322L23.3186 1.79589V0H28.2422V1.79589L26.0208 1.79589L28.2422 3.59322Z" fill="white"/>
<path d="M22.462 3.59322V5.38911H17.5383V3.5925L19.7598 3.59322L17.5383 1.79589V0H22.462V1.79589L20.2405 1.79589L22.462 3.59322Z" fill="white"/>
</svg>
