<svg width="40" height="40" viewBox="0 0 40 40" fill="none" xmlns="http://www.w3.org/2000/svg">
<path d="M5.80005 7.88574H19.9423V39.9999L8.37853 36.7951L5.80005 7.88574Z" fill="black" fill-opacity="0.08"/>
<path fill-rule="evenodd" clip-rule="evenodd" d="M34.0843 7.88574H19.9421V13.8205H28.7726L27.2104 31.8713L19.9421 33.9037V39.9999L31.5059 36.7951L34.0843 7.88574ZM19.9421 30.2554L23.9199 29.1431L24.3263 24.4465H19.9421V30.2554ZM19.9421 20.9329H24.6304L24.9419 17.334H19.9421V20.9329Z" fill="#1BA7E2"/>
<path fill-rule="evenodd" clip-rule="evenodd" d="M5.80005 7.88574L8.37853 36.7951L19.9422 39.9999L31.506 36.7951L34.0845 7.88574H5.80005ZM31.6043 10.1546H19.9422V13.8205H11.1118L11.4159 17.334H19.9422V20.9329H11.7274L12.0315 24.4465H19.9422V30.2554L15.9646 29.1431L15.7204 26.3214H12.1938L12.6741 31.8713L19.9422 33.9037V37.6467L29.3857 35.0283L31.6043 10.1546Z" fill="#0277BD"/>
<path d="M16.6235 3.59322V5.38912H11.7V0H16.6235V1.79589H13.5815V3.59322H16.6235Z" fill="black"/>
<path d="M28.1843 3.59322V5.38912H23.2607V3.5925L25.4822 3.59322L23.2607 1.79589V0H28.1843V1.79589L25.9629 1.79589L28.1843 3.59322Z" fill="black"/>
<path d="M22.4038 3.59322V5.38912H17.4802V3.5925L19.7017 3.59322L17.4802 1.79589V0H22.4038V1.79589L20.1823 1.79589L22.4038 3.59322Z" fill="black"/>
</svg>
