<svg xmlns="http://www.w3.org/2000/svg" width="40" height="40" fill="none"><style><![CDATA[.B{fill-rule:evenodd}]]></style><g clip-path="url(#B)"><mask id="A" maskUnits="userSpaceOnUse" x="8" y="8" width="32" height="24" mask-type="alpha"><g fill="#c4c4c4"><path d="M17.876 8.358h3.901v15.548c0 4.121-2.444 7.722-7.132 7.722-3.19.208-5.924-1.99-6.623-4.229.581-.088 1.147-.178 1.853-.401.562-.177 1.401-.556 1.401-.556.632 1.008 1.751 1.678 3.027 1.678a3.58 3.58 0 0 0 3.573-3.584V8.358zm8.287 17.274c1.614 1.511 3.777 2.541 5.871 2.541 2.507 0 3.914-1.133 3.914-2.885 0-1.837-1.416-2.427-3.446-3.273l-.056-.023-3.056-1.339c-2.232-.927-4.532-2.679-4.532-5.975 0-3.571 3.159-6.319 7.519-6.319 2.644 0 5.185 1.099 6.936 2.85l-2.06 2.541c-1.408-1.202-2.953-1.923-4.875-1.923-2.129 0-3.502.996-3.502 2.644 0 1.751 1.717 2.404 3.571 3.159l3.022 1.271C38.146 20.034 40 21.717 40 24.979c0 3.64-3.022 6.662-8.068 6.662a11.55 11.55 0 0 1-8.069-3.297l2.3-2.713z"/></g></mask><g mask="url(#A)" class="B"><path d="M7.499 9.697l1.367-.638c1.409-.6 4.184-1.801 6.96-2.102s5.552.3 8.327.15c2.734-.15 5.51-1.051 8.286-.45s5.552 2.702 6.96 3.79l1.367 1.051V14.2H39.4h-6.96-8.286-8.327-6.96-1.367V9.697z" fill="#ff5c5c"/><path d="M7.499 9.808l1.367.994c1.409.994 4.184 3.024 6.96 3.024s5.552-2.03 8.327-2.693c2.734-.663 5.51 0 8.286.331s5.551.331 6.96.331h1.367v7.002h-1.367-6.96-8.286-8.327-6.96-1.367v-8.99z" fill="#f79454"/><path d="M7.499 14.2l1.367.473c1.409.473 4.184 1.421 6.96 1.421s5.552-.947 8.327-1.184c2.734-.237 5.51.237 8.286 1.065s5.551 2.042 6.96 2.634l1.367.592v1.421h-1.367-6.96-8.286-8.327-6.96-1.367V14.2z" fill="#ffdb5c"/><path d="M7.499 18.302l1.386.342c1.386.342 4.158 1.027 6.931 1.027s5.545-.684 8.317-.513 5.544 1.198 8.317 1.198 5.545-1.027 6.931-1.54l1.386-.513v9.239H39.38 32.45h-8.317-8.317-6.931-1.386v-9.239z" fill="#5cff9d"/><path d="M40.766 23.273l-1.367.324c-1.408.324-4.184.971-6.96.809s-5.552-1.133-8.327-1.133c-2.734 0-5.51.971-8.286 1.456-2.776.526-5.552.526-6.96.526H7.499v4.854h1.367 6.96 8.286 8.327 6.96 1.367v-6.836z" fill="#5c6cff"/><path d="M7.499 27.375l3.377-1.74c1.077 1.74 2.175 2.619 4.951 2.729s5.552-.678 8.327-.678c2.734 0 5.51.787 8.286.678s6.442-.988 7.727-1.506l.601.518v4.64h-1.367-6.96-8.286-8.327-6.96-1.367v-4.64z" fill="#b75cff"/></g><g fill="#5865f2"><path d="M15.347 16.805c0-1.694-.319-3.168-.958-4.444-.663-1.252-1.62-2.234-2.897-2.947S8.668 8.358 6.826 8.358H0v17.188h5.807.7c1.706 0 3.012-.27 4.225-.882l-.002-.128a3.58 3.58 0 0 1 3.573-3.584l.175.004c.619-1.26.869-2.51.869-4.152zM4.125 12.042v9.822h2.333c1.498 0 2.627-.442 3.389-1.351.761-.884 1.154-2.087 1.154-3.634 0-1.522-.368-2.701-1.105-3.56s-1.842-1.277-3.29-1.277h-2.48z" class="B"/><path d="M16.571 24.537a2.26 2.26 0 0 1-2.258 2.258 2.26 2.26 0 0 1-2.258-2.258 2.26 2.26 0 0 1 2.258-2.258 2.26 2.26 0 0 1 2.258 2.258z"/></g></g><defs><clipPath id="B"><path fill="#fff" d="M0 0h40v40H0z"/></clipPath></defs></svg>