<svg width="100" height="100" viewBox="0 0 100 100" fill="none" xmlns="http://www.w3.org/2000/svg">
<g clip-path="url(#clip0_1008_24)">
<mask id="mask0_1008_24" style="mask-type:alpha" maskUnits="userSpaceOnUse" x="20" y="20" width="80" height="60">
<path d="M44.69 20.8959H54.4427V59.7654C54.4427 70.0669 48.3328 79.0699 36.6121 79.0699C28.6384 79.5895 21.8011 74.0943 20.0555 68.4977C21.5081 68.2775 22.9229 68.0519 24.6884 67.4964C26.0922 67.0546 28.1918 66.1057 28.1918 66.1057C29.7723 68.6257 32.5703 70.3004 35.7583 70.3004C40.6918 70.3004 44.6912 66.2893 44.6912 61.3413L44.69 20.8959Z" fill="#C4C4C4"/>
<path d="M65.4085 64.0798C69.4426 67.8573 74.8503 70.433 80.0858 70.433C86.3525 70.433 89.872 67.5996 89.872 63.2212C89.872 58.6278 86.3322 57.1529 81.2576 55.0384L81.1164 54.9796L73.4767 51.6314C67.8975 49.3133 62.1467 44.9348 62.1467 36.6928C62.1467 27.7642 70.044 20.8959 80.9448 20.8959C87.554 20.8959 93.9061 23.6434 98.284 28.0218L93.1332 34.3748C89.6138 31.3702 85.7518 29.5671 80.9448 29.5671C75.6226 29.5671 72.1892 32.0569 72.1892 36.1778C72.1892 40.5563 76.4816 42.1876 81.1164 44.0762L88.6706 47.2529C95.3652 50.0859 100 54.2926 100 62.4485C100 71.549 92.4464 79.1041 79.8295 79.1041C72.2753 79.1041 64.9793 76.0993 59.6577 70.8622L65.4085 64.0798Z" fill="#C4C4C4"/>
</mask>
<g mask="url(#mask0_1008_24)">
<path fill-rule="evenodd" clip-rule="evenodd" d="M18.7469 24.2412L22.1648 22.6463C25.6862 21.1452 32.6256 18.1429 39.565 17.3924C46.5044 16.6418 53.4437 18.1429 60.3831 17.7676C67.2191 17.3924 74.1584 15.1407 81.0978 16.6418C88.0372 18.1429 94.9766 23.3969 98.4986 26.1177L101.916 28.7446V35.4997H98.4986C94.9766 35.4997 88.0372 35.4997 81.0978 35.4997C74.1584 35.4997 67.2191 35.4997 60.3831 35.4997C53.4437 35.4997 46.5044 35.4997 39.565 35.4997C32.6256 35.4997 25.6862 35.4997 22.1648 35.4997H18.7469V24.2412Z" fill="#FF5C5C"/>
<path fill-rule="evenodd" clip-rule="evenodd" d="M18.7467 24.5209L22.1646 27.0066C25.686 29.4924 32.6254 34.5675 39.5648 34.5675C46.5042 34.5675 53.4436 29.4924 60.3829 27.8352C67.2189 26.1781 74.1582 27.8352 81.0976 28.6638C88.037 29.4924 94.9764 29.4924 98.4984 29.4924H101.916V46.9963H98.4984C94.9764 46.9963 88.037 46.9963 81.0976 46.9963C74.1582 46.9963 67.2189 46.9963 60.3829 46.9963C53.4436 46.9963 46.5042 46.9963 39.5648 46.9963C32.6254 46.9963 25.686 46.9963 22.1646 46.9963H18.7467V24.5209Z" fill="#F79454"/>
<path fill-rule="evenodd" clip-rule="evenodd" d="M18.7467 35.4996L22.1646 36.6833C25.686 37.867 32.6254 40.2344 39.5648 40.2344C46.5042 40.2344 53.4436 37.867 60.3829 37.2752C67.2189 36.6833 74.1582 37.867 81.0976 39.9385C88.037 42.01 94.9764 45.0432 98.4984 46.5228L101.916 48.0025V51.5536H98.4984C94.9764 51.5536 88.037 51.5536 81.0976 51.5536C74.1582 51.5536 67.2189 51.5536 60.3829 51.5536C53.4436 51.5536 46.5042 51.5536 39.5648 51.5536C32.6254 51.5536 25.686 51.5536 22.1646 51.5536H18.7467V35.4996Z" fill="#FFDB5C"/>
<path fill-rule="evenodd" clip-rule="evenodd" d="M18.7467 45.7534L22.2122 46.6089C25.6777 47.4643 32.6081 49.1752 39.5391 49.1752C46.4695 49.1752 53.4005 47.4643 60.3315 47.892C67.2619 48.3198 74.1929 50.8861 81.124 50.8861C88.0544 50.8861 94.9854 48.3198 98.4509 47.0366L101.916 45.7534V68.8503H98.4509C94.9854 68.8503 88.0544 68.8503 81.124 68.8503C74.1929 68.8503 67.2619 68.8503 60.3315 68.8503C53.4005 68.8503 46.4695 68.8503 39.5391 68.8503C32.6081 68.8503 25.6777 68.8503 22.2122 68.8503H18.7467V45.7534Z" fill="#5CFF9D"/>
<path fill-rule="evenodd" clip-rule="evenodd" d="M101.916 58.1823L98.4984 58.9913C94.977 59.8002 88.037 61.4181 81.0976 61.0137C74.1582 60.6092 67.2189 58.1823 60.2795 58.1823C53.4436 58.1823 46.5042 60.6092 39.5648 61.8226C32.6254 63.1372 25.686 63.1372 22.1646 63.1372H18.7467V75.2718H22.1646C25.686 75.2718 32.6254 75.2718 39.5648 75.2718C46.5042 75.2718 53.4436 75.2718 60.2795 75.2718C67.2189 75.2718 74.1582 75.2718 81.0976 75.2718C88.037 75.2718 94.977 75.2718 98.4984 75.2718H101.916V58.1823Z" fill="#5C6CFF"/>
<path fill-rule="evenodd" clip-rule="evenodd" d="M18.7467 68.436L27.1882 64.0859C29.8808 68.436 32.6254 70.6325 39.5648 70.9071C46.5042 71.1816 53.4436 69.2128 60.3829 69.2128C67.2189 69.2128 74.1582 71.1816 81.0976 70.9071C88.037 70.6325 97.2032 68.436 100.414 67.1414L101.916 68.436V80.0362H98.4984C94.9764 80.0362 88.037 80.0362 81.0976 80.0362C74.1582 80.0362 67.2189 80.0362 60.3829 80.0362C53.4436 80.0362 46.5042 80.0362 39.5648 80.0362C32.6254 80.0362 25.686 80.0362 22.1646 80.0362H18.7467V68.436Z" fill="#B75CFF"/>
</g>
<path fill-rule="evenodd" clip-rule="evenodd" d="M38.3673 42.013C38.3673 37.7773 37.5687 34.094 35.9728 30.902C34.3152 27.7712 31.9214 25.3158 28.7289 23.5355C25.5371 21.7553 21.67 20.8959 17.0654 20.8959H-3.05176e-05V63.8668H14.5167H16.2674C20.5316 63.8668 23.7985 63.1917 26.831 61.6626C26.8272 61.556 26.8259 61.4489 26.8259 61.3413C26.8259 56.3933 30.8253 52.3822 35.7589 52.3822C35.9053 52.3822 36.0512 52.3857 36.1958 52.3927C37.7435 49.242 38.3673 46.1184 38.3673 42.013ZM10.313 30.104V54.6588H16.1447C19.8897 54.6588 22.7134 53.5537 24.6164 51.2825C26.5194 49.0725 27.5011 46.0645 27.5011 42.1972C27.5011 38.3912 26.5805 35.4446 24.7391 33.2961C22.8972 31.1475 20.1352 30.104 16.5129 30.104H10.313Z" fill="#5865F2"/>
<path d="M41.4293 61.3413C41.4293 64.4589 38.9018 66.986 35.7845 66.986C32.6672 66.986 30.1397 64.4589 30.1397 61.3413C30.1397 58.2237 32.6672 55.6965 35.7845 55.6965C38.9018 55.6965 41.4293 58.2237 41.4293 61.3413Z" fill="#5865F2"/>
</g>
<defs>
<clipPath id="clip0_1008_24">
<rect width="100" height="100" fill="white"/>
</clipPath>
</defs>
</svg>
