<svg width="40" height="40" viewBox="0 0 40 40" fill="none" xmlns="http://www.w3.org/2000/svg">
<path d="M13.4667 39.9998C17.1486 39.9998 20.1334 37.0151 20.1334 33.3332V26.6665H13.4667C9.78481 26.6665 6.80005 29.6513 6.80005 33.3332C6.80005 37.0151 9.78481 39.9998 13.4667 39.9998Z" fill="#0ACF83"/>
<path d="M6.80005 20.0002C6.80005 23.6821 9.78481 26.6668 13.4667 26.6668H20.1334V13.3335H13.4667C9.78481 13.3335 6.80005 16.3183 6.80005 20.0002Z" fill="#A259FF"/>
<path d="M6.80005 6.66668C6.80005 10.3486 9.78481 13.3333 13.4667 13.3333H20.1334V0H13.4667C9.78481 0 6.80005 2.98477 6.80005 6.66668Z" fill="#F24E1E"/>
<path d="M26.7999 26.6669C30.4818 26.6669 33.4665 23.6821 33.4665 20.0002C33.4665 16.3183 30.4818 13.3335 26.7999 13.3335C23.118 13.3335 20.1332 16.3183 20.1332 20.0002C20.1332 23.6821 23.118 26.6669 26.7999 26.6669Z" fill="#19BCFE"/>
<path d="M26.7999 13.3333C30.4817 13.3333 33.4665 10.3486 33.4665 6.66668C33.4665 2.98477 30.4817 0 26.7999 0H20.1332V13.3333H26.7999Z" fill="#FF7262"/>
</svg>
