<svg width="40" height="40" viewBox="0 0 40 40" fill="none" xmlns="http://www.w3.org/2000/svg">
<g clip-path="url(#clip0_1295_50)">
<path d="M21.8494 0.76606C20.8281 -0.255353 19.1719 -0.255353 18.1506 0.76606L14.5678 4.34884L19.1812 8.96228C20.2205 8.64336 21.3971 8.895 22.2193 9.7172C23.0415 10.5394 23.2931 11.716 22.9743 12.7552L27.5406 17.3216C28.5798 17.0027 29.7565 17.2543 30.5786 18.0765C31.7635 19.2614 31.7635 21.1823 30.5786 22.3672C29.3938 23.552 27.4729 23.552 26.288 22.3672C25.4035 21.4826 25.1794 20.1878 25.6155 19.0953L21.517 14.9968V25.869C21.7616 26.0038 21.9914 26.1749 22.1988 26.3823C23.3836 27.5671 23.3836 29.4881 22.1988 30.6729C21.014 31.8577 19.0931 31.8577 17.9082 30.6729C16.7234 29.4881 16.7234 27.5671 17.9082 26.3823C18.2017 26.0889 18.5402 25.8681 18.9015 25.72V14.6616C18.5478 14.5137 18.2165 14.2957 17.9287 14.0078C17.0441 13.1233 16.82 11.8285 17.2561 10.736L12.7184 6.1982L0.766096 18.1506C-0.255365 19.172 -0.255365 20.828 0.766096 21.8494L18.1506 39.2339C19.1719 40.2552 20.8281 40.2552 21.8494 39.2339L39.2339 21.8494C40.2552 20.828 40.2552 19.172 39.2339 18.1506L21.8494 0.76606Z" fill="#F05033"/>
</g>
<defs>
<clipPath id="clip0_1295_50">
<rect width="40" height="40" fill="white"/>
</clipPath>
</defs>
</svg>
