<svg width="40" height="40" viewBox="0 0 40 40" fill="none" xmlns="http://www.w3.org/2000/svg">
<path d="M20 40C31.0457 40 40 31.0457 40 20C40 8.95431 31.0457 0 20 0C8.95431 0 0 8.95431 0 20C0 31.0457 8.95431 40 20 40Z" fill="white"/>
<path fill-rule="evenodd" clip-rule="evenodd" d="M19.9984 2C10.0588 2 2 10.0792 2 20.046C2 28.0188 7.15708 34.7818 14.3098 37.1691C15.2104 37.3342 15.5385 36.777 15.5385 36.2984C15.5385 35.8708 15.5231 34.7353 15.5142 33.2298C10.5074 34.3199 9.45104 30.8104 9.45104 30.8104C8.63224 28.7266 7.45212 28.1716 7.45212 28.1716C5.8178 27.0516 7.57588 27.0738 7.57588 27.0738C9.38256 27.2023 10.3328 28.9338 10.3328 28.9338C11.9384 31.6911 14.5462 30.8946 15.5717 30.4338C15.7352 29.2672 16.1993 28.4718 16.7143 28.021C12.7174 27.5657 8.51512 26.017 8.51512 19.1021C8.51512 17.1325 9.2168 15.5217 10.3682 14.26C10.1826 13.8036 9.56488 11.969 10.5439 9.48424C10.5439 9.48424 12.0556 8.99904 15.4943 11.3343C16.9297 10.9344 18.4701 10.7338 20.0006 10.7272C21.5288 10.7338 23.0692 10.9344 24.5068 11.3343C27.9433 8.99904 29.4517 9.48424 29.4517 9.48424C30.434 11.969 29.8163 13.8036 29.6307 14.26C30.7843 15.5217 31.4816 17.1325 31.4816 19.1021C31.4816 26.0347 27.2726 27.5601 23.2625 28.0066C23.909 28.5638 24.4847 29.6649 24.4847 31.3488C24.4847 33.7604 24.4626 35.7068 24.4626 36.2984C24.4626 36.7814 24.7863 37.343 25.7002 37.1669C32.8474 34.7752 38 28.0165 38 20.046C38 10.0792 29.9401 2 19.9984 2Z" fill="#1B1817"/>
</svg>
