<svg xmlns="http://www.w3.org/2000/svg" xmlns:xlink="http://www.w3.org/1999/xlink" width="40" height="40" fill="none"><path fill-rule="evenodd" d="M5.284 9.932V5.49c0-1.252 1.358-2.032 2.44-1.401l3.807 2.221c1.073.626 1.073 2.177 0 2.803l-3.807 2.221c-1.082.631-2.44-.149-2.44-1.401zm1.606 0V5.49c0-.012.013-.02.024-.014l3.808 2.221c.011.006.011.022 0 .028L6.914 9.946c-.011.006-.024-.001-.024-.014z" fill="#2088ff"/><path d="M21.187 34.538c0 .444-.36.803-.803.803s-.803-.36-.803-.803.36-.803.803-.803.803.36.803.803zm-2.731 0c0 .444-.36.803-.803.803s-.803-.36-.803-.803.36-.803.803-.803.803.36.803.803z" fill="#79b8ff"/><g fill-rule="evenodd"><g fill="#2088ff"><use xlink:href="#B"/><use xlink:href="#B" x="14.94"/></g><path d="M39.501 34.458c0 3.061-2.481 5.542-5.542 5.542-2.76 0-5.049-2.018-5.472-4.659h-1.998c-.444 0-.803-.36-.803-.803s.36-.803.803-.803h1.974c.354-2.719 2.68-4.819 5.495-4.819 3.061 0 5.542 2.481 5.542 5.542zm-1.606 0c0 2.174-1.762 3.936-3.936 3.936s-3.936-1.762-3.936-3.936 1.762-3.936 3.936-3.936 3.936 1.762 3.936 3.936z" fill="#79b8ff"/><path d="M16.047 7.711c0 4.115-3.223 7.477-7.283 7.699.25 2.576 2.239 4.643 4.779 5.013.414-2.651 2.708-4.68 5.475-4.68 2.788 0 5.095 2.059 5.484 4.739h3.971c.389-2.68 2.696-4.739 5.484-4.739 3.061 0 5.542 2.481 5.542 5.542s-2.481 5.542-5.542 5.542c-2.788 0-5.095-2.059-5.484-4.739h-3.971c-.389 2.68-2.696 4.739-5.484 4.739-2.805 0-5.122-2.083-5.491-4.786a7.22 7.22 0 0 1-4.79-2.637v9.673a4.66 4.66 0 0 0 4.659 4.659h.127c.354-2.719 2.68-4.819 5.496-4.819 3.061 0 5.542 2.481 5.542 5.542S22.079 40 19.019 40c-2.76 0-5.049-2.018-5.472-4.659h-.15c-3.46 0-6.265-2.805-6.265-6.265V15.328C3.445 14.75.625 11.56.625 7.711.625 3.452 4.077 0 8.336 0s7.711 3.452 7.711 7.711zm2.972 17.51c2.174 0 3.936-1.762 3.936-3.936s-1.762-3.936-3.936-3.936-3.936 1.762-3.936 3.936 1.762 3.936 3.936 3.936zM14.44 7.711c0 3.371-2.733 6.104-6.104 6.104s-6.104-2.733-6.104-6.104 2.733-6.104 6.104-6.104 6.104 2.733 6.104 6.104zm19.518 17.51c2.174 0 3.936-1.762 3.936-3.936s-1.762-3.936-3.936-3.936-3.936 1.762-3.936 3.936 1.762 3.936 3.936 3.936zm-11.004 9.237c0 2.174-1.762 3.936-3.936 3.936s-3.936-1.762-3.936-3.936 1.762-3.936 3.936-3.936 3.936 1.762 3.936 3.936z" fill="#2088ff"/></g><defs ><path id="B" d="M21.344 19.423c.319.308.328.817.019 1.136l-2.318 2.398a.82.82 0 0 1-1.149.028l-1.274-1.194c-.324-.303-.34-.812-.037-1.135s.812-.34 1.135-.037l.708.664 1.78-1.841c.308-.319.817-.328 1.136-.019z"/></defs></svg>