<svg width="100" height="100" viewBox="0 0 100 100" fill="none" xmlns="http://www.w3.org/2000/svg">
<circle cx="50" cy="50" r="50" fill="white"/>
<path fill-rule="evenodd" clip-rule="evenodd" d="M49.9959 5C25.147 5 5 25.1979 5 50.1149C5 70.0469 17.8927 86.9546 35.7744 92.9228C38.0259 93.3355 38.8463 91.9424 38.8463 90.746C38.8463 89.677 38.8077 86.8383 38.7856 83.0745C26.2686 85.7997 23.6276 77.026 23.6276 77.026C21.5806 71.8166 18.6303 70.4291 18.6303 70.4291C14.5445 67.6291 18.9397 67.6845 18.9397 67.6845C23.4564 68.0058 25.8321 72.3345 25.8321 72.3345C29.8461 79.2277 36.3656 77.2365 38.9292 76.0844C39.3381 73.1681 40.4983 71.1796 41.7857 70.0524C31.7936 68.9142 21.2878 65.0424 21.2878 47.7553C21.2878 42.8312 23.042 38.8043 25.9205 35.6499C25.4564 34.5089 23.9122 29.9226 26.3598 23.7106C26.3598 23.7106 30.1389 22.4976 38.7358 28.3357C42.3243 27.3359 46.1753 26.8346 50.0014 26.818C53.8219 26.8346 57.6729 27.3359 61.2669 28.3357C69.8583 22.4976 73.6292 23.7106 73.6292 23.7106C76.0851 29.9226 74.5408 34.5089 74.0767 35.6499C76.9608 38.8043 78.7039 42.8312 78.7039 47.7553C78.7039 65.0867 68.1815 68.9003 58.1563 70.0164C59.7724 71.4095 61.2117 74.1623 61.2117 78.372C61.2117 84.4011 61.1564 89.2671 61.1564 90.746C61.1564 91.9535 61.9658 93.3576 64.2504 92.9173C82.1184 86.938 95 70.0413 95 50.1149C95 25.1979 74.8502 5 49.9959 5Z" fill="#1B1817"/>
</svg>
