<svg width="40" height="40" viewBox="0 0 40 40" fill="none" xmlns="http://www.w3.org/2000/svg">
<path d="M5.80005 7.88574H19.9423V39.9999L8.37853 36.7951L5.80005 7.88574Z" fill="black" fill-opacity="0.08"/>
<path fill-rule="evenodd" clip-rule="evenodd" d="M34.0843 7.88574H19.9421V13.8205H28.7726L28.4685 17.334H19.9421V20.9329H28.157L27.2103 31.8713L19.9421 33.9037V39.9999L31.5059 36.7951L34.0843 7.88574ZM19.9421 30.2554L23.9198 29.1431L24.3263 24.4465H19.9421V30.2554Z" fill="#F16529"/>
<path fill-rule="evenodd" clip-rule="evenodd" d="M5.80005 7.88574L8.37853 36.7951L19.9422 39.9999L31.506 36.7951L34.0845 7.88574H5.80005ZM31.6043 10.1546H19.9422V13.8205H11.1118L12.0314 24.4465H19.9422V30.2554L15.9646 29.1431L15.7203 26.3214H12.1937L12.674 31.8713L19.9422 33.9037V37.6467L29.3857 35.0283L31.6043 10.1546ZM19.9422 20.9329V17.334H14.9425L15.254 20.9329H19.9422Z" fill="#E44D26"/>
<path d="M27.0984 0H28.8198V3.59322H31.4624V5.38912H27.0984V0Z" fill="black"/>
<path d="M26.2416 0V5.38912H24.5202V2.69456L23.2303 4.60796L21.9404 2.69456V5.38912H20.219V0H22.099L23.2303 1.87327L24.3617 0H26.2416Z" fill="black"/>
<path d="M17.7612 5.38912H16.0398V1.79589H14.4387V0H19.3624V1.79589H17.7612V5.38912Z" fill="black"/>
<path d="M8.42212 0H10.1435V1.79472H11.8605V0H13.5819V5.38912H11.8605V3.59439H10.1435V5.38912H8.42212V0Z" fill="black"/>
</svg>
