<svg width="256" height="256" viewBox="0 0 256 256" fill="none" xmlns="http://www.w3.org/2000/svg">
<path d="M37.4897 50.4692H128V256L53.992 235.489L37.4897 50.4692Z" fill="black" fill-opacity="0.08"/>
<path fill-rule="evenodd" clip-rule="evenodd" d="M218.51 50.4692H128V88.4513L184.515 88.4513L182.569 110.938L128 110.938V133.971L180.575 133.971L174.517 203.976L128 216.984L128 216.984V256L202.008 235.489L218.51 50.4692ZM128 193.635L128 193.635L153.457 186.516L156.059 156.458H128V193.635Z" fill="#F16529"/>
<path fill-rule="evenodd" clip-rule="evenodd" d="M37.4899 50.4692L53.9921 235.489L128 256L202.008 235.489L218.51 50.4692H37.4899ZM202.637 64.9897H128V88.4513L71.4849 88.4513L77.3707 156.458L128 156.458L128 193.635L102.543 186.516L100.98 168.457H78.4093L81.4834 203.977L128 216.984L128 240.939L188.438 224.182L202.637 64.9897ZM128 133.971V110.938L96.0015 110.938L97.9951 133.971H128Z" fill="#E44D26"/>
<path d="M173.799 0H184.817V22.9966H201.729V34.4903H184.817H173.799V22.9966V0Z" fill="white"/>
<path d="M168.317 0V34.4903H157.299V17.2452L149.044 29.491L140.789 17.2452V34.4903H129.772V0H141.803L149.044 11.9889L156.285 0H168.317Z" fill="white"/>
<path d="M114.042 34.4903H103.025V11.4937H92.7777V0H124.289V11.4937H114.042V34.4903Z" fill="white"/>
<path d="M54.2711 0H65.2882V11.4862H76.2767V0H87.2938V34.4903H76.2767V23.0041H65.2882V34.4903H54.2711V0Z" fill="white"/>
</svg>
