<svg width="40" height="40" viewBox="0 0 40 40" fill="none" xmlns="http://www.w3.org/2000/svg">
<path d="M5.85767 7.88574H19.9999V39.9999L8.43615 36.7951L5.85767 7.88574Z" fill="black" fill-opacity="0.08"/>
<path fill-rule="evenodd" clip-rule="evenodd" d="M34.1422 7.88574H20V13.8204H28.8305L28.5264 17.334H20V20.9329H28.2148L27.2683 31.8712L20 33.9037V39.9999L31.5637 36.7951L34.1422 7.88574ZM20 30.2554L23.9777 29.1431L24.3842 24.4465H20V30.2554Z" fill="#F16529"/>
<path fill-rule="evenodd" clip-rule="evenodd" d="M5.85791 7.88574L8.43638 36.7951L20.0001 39.9999L31.5639 36.7951L34.1423 7.88574H5.85791ZM31.6621 10.1546H20.0001V13.8204H11.1696L12.0893 24.4465H20.0001V30.2554L16.0225 29.1431L15.7782 26.3213H12.2516L12.7319 31.8713L20.0001 33.9037V37.6466L29.4436 35.0284L31.6621 10.1546ZM20.0001 20.9329V17.334H15.0003L15.3118 20.9329H20.0001Z" fill="#E44D26"/>
<path d="M27.156 0H28.8776V3.59322H31.5201V5.38911H28.8776H27.156V3.59322V0Z" fill="white"/>
<path d="M26.2995 0V5.38911H24.5779V2.69456L23.2881 4.60797L21.9983 2.69456V5.38911H20.2769V0H22.1567L23.2881 1.87327L24.4195 0H26.2995Z" fill="white"/>
<path d="M17.8191 5.38911H16.0977V1.79589H14.4966V0H19.4202V1.79589H17.8191V5.38911Z" fill="white"/>
<path d="M8.47998 0H10.2014V1.79472H11.9184V0H13.6398V5.38911H11.9184V3.59439H10.2014V5.38911H8.47998V0Z" fill="white"/>
</svg>
