<svg width="40" height="40" viewBox="0 0 40 40" fill="none" xmlns="http://www.w3.org/2000/svg">
<g clip-path="url(#clip0_1296_183)">
<path d="M14.5274 30.9249C14.5274 30.9249 12.9899 31.8599 15.5961 32.1274C18.7337 32.5274 20.4049 32.4611 23.8774 31.7936C24.5753 32.221 25.3134 32.579 26.0812 32.8624C18.2687 36.2024 8.38115 32.6624 14.5262 30.9249H14.5274ZM13.5274 26.5836C13.5274 26.5836 11.8574 27.8524 14.4624 28.1211C17.8686 28.4549 20.5399 28.5211 25.1499 27.5874C25.5982 28.0421 26.1472 28.3851 26.7524 28.5886C17.3349 31.3936 6.7824 28.8561 13.5274 26.5849V26.5836ZM31.9612 34.1961C31.9612 34.1961 33.0962 35.1311 30.6924 35.8661C26.2174 37.2036 11.9249 37.6036 7.9174 35.8661C6.5149 35.2661 9.18615 34.3974 10.0424 34.2636C10.9112 34.0636 11.3799 34.0636 11.3799 34.0636C9.8424 32.9949 1.16115 36.2674 6.9724 37.2011C22.9349 39.8061 36.0924 36.0661 31.9512 34.1961H31.9612ZM15.2499 22.0411C15.2499 22.0411 7.9699 23.7786 12.6449 24.3786C14.6487 24.6461 18.5886 24.5786 22.2624 24.3124C25.2674 24.0449 28.2749 23.5124 28.2749 23.5124C28.2749 23.5124 27.2062 23.9799 26.4712 24.4474C19.0587 26.3849 4.83115 25.5161 8.90615 23.5124C12.3786 21.8424 15.2511 22.0436 15.2511 22.0436L15.2499 22.0411ZM28.2749 29.3211C35.7549 25.4461 32.2824 21.7086 29.8774 22.1749C29.2774 22.3086 29.0087 22.4424 29.0087 22.4424C29.0087 22.4424 29.2087 22.0424 29.6762 21.9086C34.4187 20.2386 38.1587 26.9174 28.1387 29.5211C28.1387 29.5211 28.2049 29.4549 28.2724 29.3211H28.2749ZM15.9874 39.8736C23.1999 40.3411 34.2212 39.6061 34.4874 36.1986C34.4874 36.1986 33.9537 37.5361 28.5437 38.5361C22.3987 39.6711 14.7849 39.5361 10.3099 38.8036C10.3099 38.8036 11.2449 39.6036 15.9874 39.8724V39.8736Z" fill="#4E7896"/>
<path d="M23.745 0.0012207C23.745 0.0012207 27.8862 4.20872 19.805 10.5537C13.3262 15.6962 18.3362 18.635 19.805 21.975C15.9975 18.5687 13.26 15.5625 15.13 12.7587C17.8675 8.61622 25.415 6.62497 23.745 0.0012207ZM21.62 19.17C23.5575 21.3737 21.0862 23.3775 21.0862 23.3775C21.0862 23.3775 26.0287 20.84 23.7575 17.7C21.6875 14.695 20.0825 13.225 28.7662 8.21622C28.7662 8.21622 15.075 11.6225 21.62 19.17V19.17Z" fill="#F58219"/>
</g>
<defs>
<clipPath id="clip0_1296_183">
<rect width="40" height="40" fill="white"/>
</clipPath>
</defs>
</svg>
