<svg width="40" height="40" viewBox="0 0 40 40" fill="none" xmlns="http://www.w3.org/2000/svg">
<path d="M40 0H0V40H40V0Z" fill="#F0DB4F"/>
<path d="M10.5173 33.4269L13.5784 31.5743C14.169 32.6214 14.7062 33.5073 15.9948 33.5073C17.2299 33.5073 18.0087 33.0241 18.0087 31.1447V18.3638H21.7676V31.1979C21.7676 35.0912 19.4855 36.8634 16.1559 36.8634C13.1488 36.8634 11.4033 35.306 10.5173 33.4266" fill="#323330"/>
<path d="M23.8093 33.0241L26.87 31.252C27.6758 32.5678 28.7229 33.5343 30.5755 33.5343C32.1331 33.5343 33.1262 32.7556 33.1262 31.6816C33.1262 30.3928 32.106 29.9362 30.3875 29.1846L29.448 28.7816C26.7359 27.6273 24.9369 26.1774 24.9369 23.1164C24.9369 20.2971 27.0849 18.1489 30.4413 18.1489C32.831 18.1489 34.5494 18.9814 35.7844 21.1563L32.8577 23.0358C32.2132 21.8813 31.5153 21.4249 30.4413 21.4249C29.3404 21.4249 28.6423 22.123 28.6423 23.0358C28.6423 24.1636 29.3404 24.62 30.9513 25.3182L31.891 25.7209C35.0862 27.0904 36.8853 28.4865 36.8853 31.6278C36.8853 35.0112 34.2271 36.8637 30.6561 36.8637C27.1655 36.8637 24.91 35.1991 23.8093 33.0241Z" fill="#323330"/>
</svg>
