<svg width="40" height="40" viewBox="0 0 40 40" fill="none" xmlns="http://www.w3.org/2000/svg">
    <g clip-path="url(#clip0_4619_8)">
    <path fill-rule="evenodd" clip-rule="evenodd" d="M15.72 13.3939L5.97581 30.38L3.70097 26.4984L6.32677 21.949L1.11161 21.9355L0 19.9958L1.13516 18.0119L8.55871 18.0355L11.2265 13.4058L15.72 13.3939ZM16.4677 26.9726L35.9545 26.9735L33.7523 30.8974L28.5248 30.8829L31.1206 35.4361L30.0077 37.3748L27.7335 37.3774L24.0416 30.8945L18.7245 30.8835L16.4677 26.9726ZM27.8097 19.5294L18.0671 2.54226L22.5445 2.5L25.1455 7.06387L27.7648 2.52452L29.9897 2.52516L31.129 4.50677L27.3968 10.9661L30.0461 15.6068L27.8097 19.5294Z" fill="#7EBAE4"/>
    <path fill-rule="evenodd" clip-rule="evenodd" d="M12.2036 20.3913L21.9462 37.3784L17.4688 37.4206L14.8678 32.8568L12.2484 37.3961L10.0236 37.3955L8.88425 35.4139L12.6165 28.9545L9.96715 24.3139L12.2036 20.3913ZM23.5197 12.9052L4.03296 12.9042L6.23554 8.98065L11.4626 8.99516L8.86683 4.44194L9.97973 2.50323L12.2542 2.5L15.9459 8.9829L21.2633 8.99387L23.5197 12.9052ZM24.28 26.5232L34.0242 9.53677L36.2991 13.4187L33.673 17.9677L38.8884 17.9816L40 19.9213L38.8649 21.9052L31.4413 21.8816L28.7736 26.5113L24.28 26.5232Z" fill="#5277C3"/>
    </g>
    <defs>
    <clipPath id="clip0_4619_8">
    <rect width="40" height="40" fill="white"/>
    </clipPath>
    </defs>
</svg>
