<svg width="40" height="40" viewBox="0 0 40 40" fill="none" xmlns="http://www.w3.org/2000/svg">
<g clip-path="url(#clip0_1295_84)">
<path d="M20.9015 0.251279C20.3059 -0.0837597 19.5986 -0.0837597 19.0029 0.251279L3.33057 9.29732C2.73494 9.63236 2.3999 10.2652 2.3999 10.9353V29.0646C2.3999 29.7347 2.77217 30.3676 3.33057 30.7026L19.0029 39.7486C19.5986 40.0836 20.3059 40.0836 20.9015 39.7486L36.5739 30.7026C37.1695 30.3676 37.5045 29.7347 37.5045 29.0646V10.9353C37.5045 10.2652 37.1323 9.63236 36.5739 9.29732L20.9015 0.251279Z" fill="url(#paint0_linear_1295_84)"/>
<path d="M28.7402 4.77577L20.8643 0.251318C20.7154 0.176865 20.5292 0.102412 20.3803 0.0651855L2.7854 30.2067C2.93353 30.4054 3.11865 30.5755 3.33058 30.7026L19.003 39.7487C19.4631 40.0075 19.9899 40.0663 20.4803 39.9253L37.0199 9.67089C36.8912 9.52437 36.7408 9.39757 36.5739 9.29737L28.7402 4.77577Z" fill="url(#paint1_linear_1295_84)"/>
<path d="M20.1813 39.986C20.4293 39.9559 20.6735 39.8768 20.9013 39.7486L36.5737 30.7026C37.0841 30.4155 37.4031 29.9098 37.484 29.3494L20.3092 0.0338185C19.8691 -0.0501831 19.4099 0.0223037 19.0028 0.251279L3.34595 9.28836L20.1813 39.986Z" fill="url(#paint2_linear_1295_84)"/>
</g>
<defs>
<linearGradient id="paint0_linear_1295_84" x1="26.3372" y1="6.99472" x2="9.15814" y2="33.987" gradientUnits="userSpaceOnUse">
<stop stop-color="#41873F"/>
<stop offset="0.3288" stop-color="#418B3D"/>
<stop offset="0.6352" stop-color="#419637"/>
<stop offset="0.9319" stop-color="#3FA92D"/>
<stop offset="1" stop-color="#3FAE2A"/>
</linearGradient>
<linearGradient id="paint1_linear_1295_84" x1="17.5726" y1="22.1232" x2="60.5948" y2="-1.2507" gradientUnits="userSpaceOnUse">
<stop offset="0.1376" stop-color="#41873F"/>
<stop offset="0.4032" stop-color="#54A044"/>
<stop offset="0.7136" stop-color="#66B848"/>
<stop offset="0.9081" stop-color="#6CC04A"/>
</linearGradient>
<linearGradient id="paint2_linear_1295_84" x1="1.82736" y1="20.0005" x2="38.0923" y2="20.0005" gradientUnits="userSpaceOnUse">
<stop offset="0.0919165" stop-color="#6CC04A"/>
<stop offset="0.2864" stop-color="#66B848"/>
<stop offset="0.5968" stop-color="#54A044"/>
<stop offset="0.8624" stop-color="#41873F"/>
</linearGradient>
<clipPath id="clip0_1295_84">
<rect width="40" height="40" fill="white"/>
</clipPath>
</defs>
</svg>
