<svg width="40" height="40" viewBox="0 0 40 40" fill="none" xmlns="http://www.w3.org/2000/svg">
<g clip-path="url(#clip0_1295_93)">
<path fill-rule="evenodd" clip-rule="evenodd" d="M35.2263 29.7046C35.2263 29.7046 39.9999 29.7046 39.9999 19.9999C39.9999 10.2952 35.2263 10.2952 35.2263 10.2952H30.9055L30.9044 14.4783C30.9044 17.859 28.1638 20.5996 24.7832 20.5996L15.2167 20.6003C12.4987 20.6003 10.2954 22.8036 10.2954 25.5216V35.2263C10.2954 35.2263 10.2954 39.9999 20.0001 39.9999C29.7047 39.9999 29.7047 35.2263 29.7047 35.2263V31.0924H20.0001V29.7046H35.2263ZM23.7501 35.1771C23.7501 34.2095 24.5344 33.4251 25.502 33.4251C26.4696 33.4251 27.2539 34.2095 27.2539 35.1771C27.2539 36.1446 26.4696 36.929 25.502 36.929C24.5344 36.929 23.7501 36.1446 23.7501 35.1771Z" fill="url(#paint0_linear_1295_93)"/>
<path fill-rule="evenodd" clip-rule="evenodd" d="M4.77357 10.2953C4.77357 10.2953 0 10.2953 0 20C0 29.7048 4.77357 29.7047 4.77357 29.7047H9.09441L9.09549 25.5217C9.09549 22.141 11.8361 19.4004 15.2167 19.4004L24.7833 19.3996C27.5012 19.3996 29.7045 17.1963 29.7045 14.4784V4.77361C29.7045 4.77361 29.7045 0 19.9998 0C10.2952 0 10.2952 4.77361 10.2952 4.77361V8.90749H19.9998V10.2953H4.77357ZM16.2499 4.82285C16.2499 5.79045 15.4655 6.57481 14.4979 6.57481C13.5303 6.57481 12.746 5.79045 12.746 4.82285C12.746 3.85526 13.5303 3.07088 14.4979 3.07088C15.4655 3.07088 16.2499 3.85526 16.2499 4.82285Z" fill="url(#paint1_linear_1295_93)"/>
</g>
<defs>
<linearGradient id="paint0_linear_1295_93" x1="10.2951" y1="26.747" x2="39.9995" y2="26.747" gradientUnits="userSpaceOnUse">
<stop stop-color="#FFDB4D"/>
<stop offset="0.326708" stop-color="#FCCB3D"/>
</linearGradient>
<linearGradient id="paint1_linear_1295_93" x1="3.6672e-06" y1="14.8524" x2="29.7045" y2="14.8524" gradientUnits="userSpaceOnUse">
<stop offset="0.673294" stop-color="#3778AD"/>
<stop offset="1" stop-color="#366D9A"/>
</linearGradient>
<clipPath id="clip0_1295_93">
<rect width="40" height="40" fill="white"/>
</clipPath>
</defs>
</svg>
