<svg width="100" height="100" viewBox="0 0 100 100" fill="none" xmlns="http://www.w3.org/2000/svg">
<path fill-rule="evenodd" clip-rule="evenodd" d="M88.066 74.2618C88.066 74.2618 100 74.2618 100 50C100 25.7381 88.066 25.7381 88.066 25.7381H77.2639L77.2612 36.1959C77.2612 44.6476 70.4098 51.4991 61.9582 51.4991L38.0418 51.5009C31.247 51.5009 25.7387 57.0092 25.7387 63.8041V88.0659C25.7387 88.0659 25.7387 100 50.0003 100C74.262 100 74.262 88.0659 74.262 88.0659V77.7312H50.0003V74.2618H88.066ZM59.3753 87.9429C59.3753 85.5239 61.3362 83.5629 63.7551 83.5629C66.1741 83.5629 68.135 85.5239 68.135 87.9429C68.135 90.3618 66.1741 92.3228 63.7551 92.3228C61.3362 92.3228 59.3753 90.3618 59.3753 87.9429Z" fill="url(#paint0_linear_1014_21)"/>
<path fill-rule="evenodd" clip-rule="evenodd" d="M11.9339 25.7382C11.9339 25.7382 -1.52588e-05 25.7382 -1.52588e-05 50C-1.52588e-05 74.2619 11.9339 74.2618 11.9339 74.2618H22.736L22.7387 63.8041C22.7387 55.3525 29.5902 48.501 38.0418 48.5009L61.9582 48.499C68.753 48.499 74.2612 42.9907 74.2612 36.1959V11.934C74.2612 11.934 74.2612 -3.05176e-05 49.9996 -3.05176e-05C25.738 -3.05176e-05 25.738 11.934 25.738 11.934V22.2687H49.9996V25.7382H11.9339ZM40.6247 12.0571C40.6247 14.4761 38.6637 16.437 36.2448 16.437C33.8258 16.437 31.8649 14.4761 31.8649 12.0571C31.8649 9.63813 33.8258 7.67717 36.2448 7.67717C38.6637 7.67717 40.6247 9.63813 40.6247 12.0571Z" fill="url(#paint1_linear_1014_21)"/>
<defs>
<linearGradient id="paint0_linear_1014_21" x1="25.7378" y1="66.8676" x2="99.999" y2="66.8676" gradientUnits="userSpaceOnUse">
<stop stop-color="#FFDB4D"/>
<stop offset="0.326708" stop-color="#FCCB3D"/>
</linearGradient>
<linearGradient id="paint1_linear_1014_21" x1="-6.09081e-06" y1="37.1309" x2="74.2612" y2="37.1309" gradientUnits="userSpaceOnUse">
<stop offset="0.673294" stop-color="#3778AD"/>
<stop offset="1" stop-color="#366D9A"/>
</linearGradient>
</defs>
</svg>
