<svg width="100" height="100" viewBox="0 0 100 100" fill="none" xmlns="http://www.w3.org/2000/svg">
<circle cx="50" cy="50" r="50" fill="#CC6699"/>
<path fill-rule="evenodd" clip-rule="evenodd" d="M18.1821 42.9546C19.091 27.7274 48.1062 11.7426 63.9397 12.1213C91.8183 12.1213 83.2577 40 63.2577 45.3788C42.9547 50.8391 40.554 40.2377 41.7426 40C42.8789 39.7728 45.4547 47.1212 61.7426 41.2121C68.788 38.6561 76.288 31.8977 76.288 24.9243C76.288 20.0758 69.6213 15.9091 54.1668 20.0758C42.8032 23.1395 12.9132 39.8033 31.9698 53.8637C36.3671 57.1081 39.6162 59.5102 41.8183 62.1212C58.4092 57.6515 65.0413 67.8788 63.5607 73.6365C62.8789 76.288 60.7144 77.7565 59.7729 78.1062C57.1213 79.091 57.9818 77.9445 58.8638 77.2537C61.2547 75.3813 61.874 73.5312 61.4585 71.8182C60.503 67.8788 56.7426 64.9243 50.0759 64.5455C48.16 64.4366 46.0171 64.4366 43.8638 65.0758C44.9316 67.312 45.1986 70.6818 44.8486 73.1818C43.788 80.7576 38.485 85.1432 34.6971 86.5909C20.2274 92.1212 17.5876 78.4091 26.8183 70.9092C30.7289 67.7318 34.4996 65.5184 37.8789 63.9394C32.2004 59.8017 28.2748 57.1705 25.5533 54.8486C20.3521 50.4111 18.1821 46.4582 18.1821 42.9546ZM27.4244 80.2274C27.7412 83.7121 31.7426 83.3384 35.985 80.0001C39.6119 77.1462 41.5229 70.9286 39.9715 66.7767C33.1475 70.0463 27.0485 76.0924 27.4244 80.2274Z" fill="white"/>
</svg>
