<svg width="40" height="40" viewBox="0 0 40 40" fill="none" xmlns="http://www.w3.org/2000/svg">
<path d="M20 40C31.0457 40 40 31.0457 40 20C40 8.95431 31.0457 0 20 0C8.95431 0 0 8.95431 0 20C0 31.0457 8.95431 40 20 40Z" fill="#CC6699"/>
<path fill-rule="evenodd" clip-rule="evenodd" d="M7.27283 17.1819C7.63639 11.091 19.2425 4.69711 25.5759 4.84859C36.7273 4.84859 33.3031 16.0001 25.3031 18.1516C17.1819 20.3357 16.2216 16.0951 16.697 16.0001C17.1515 15.9092 18.1819 18.8485 24.697 16.4849C27.5152 15.4625 30.5152 12.7591 30.5152 9.96979C30.5152 8.03039 27.8485 6.36371 21.6667 8.03039C17.1213 9.25587 5.16527 15.9214 12.7879 21.5455C14.5468 22.8433 15.8465 23.8041 16.7273 24.8485C23.3637 23.0607 26.0165 27.1516 25.4243 29.4547C25.1515 30.5153 24.2857 31.1027 23.9091 31.2425C22.8485 31.6365 23.1927 31.1779 23.5455 30.9015C24.5019 30.1526 24.7496 29.4125 24.5834 28.7273C24.2012 27.1516 22.697 25.9698 20.0303 25.8183C19.264 25.7747 18.4068 25.7747 17.5455 26.0304C17.9726 26.9249 18.0794 28.2728 17.9394 29.2728C17.5152 32.3031 15.394 34.0573 13.8788 34.6364C8.09095 36.8485 7.03503 31.3637 10.7273 28.3637C12.2915 27.0928 13.7998 26.2074 15.1515 25.5758C12.8801 23.9207 11.3099 22.8683 10.2213 21.9395C8.14083 20.1645 7.27283 18.5833 7.27283 17.1819ZM10.9697 32.091C11.0965 33.4849 12.697 33.3354 14.394 32.0001C15.8447 30.8585 16.6091 28.3715 15.9886 26.7107C13.259 28.0186 10.8194 30.437 10.9697 32.091Z" fill="white"/>
</svg>
