<svg width="40" height="40" viewBox="0 0 40 40" fill="none" xmlns="http://www.w3.org/2000/svg">
<g clip-path="url(#clip0_1295_99)">
<path d="M32.9688 29.4531V3.98438H20.7812L6.95312 10.5469V35.7031H19.5312L32.9688 29.4531Z" fill="white"/>
<path fill-rule="evenodd" clip-rule="evenodd" d="M19.9809 1.53327C25.4389 -1.6231 32.4181 0.250028 35.5693 5.71704C37.954 9.85428 37.4631 14.8641 34.7176 18.4244C36.9207 23.6579 34.9397 29.8382 29.9017 32.7516L20.0191 38.4667C14.5611 41.6232 7.58198 39.75 4.43078 34.283C2.04604 30.1457 2.537 25.1359 5.28246 21.5756C3.07928 16.3421 5.0603 10.1618 10.0983 7.2484L19.9809 1.53327ZM22.2632 5.4928L12.3806 11.2079C9.79886 12.7009 8.5551 15.6238 9.07066 18.4012C9.2091 19.1469 9.4743 19.8821 9.87446 20.5763C10.2745 21.2704 10.7775 21.868 11.3529 22.3608C13.4965 24.197 16.6456 24.5796 19.2275 23.0866L23.0549 20.873C24.1465 20.2417 25.5423 20.6163 26.1725 21.7097C26.8028 22.8031 26.4288 24.2012 25.3372 24.8325L15.4545 30.5476C14.3629 31.1789 12.9671 30.8043 12.3369 29.7109C12.0193 29.16 11.9567 28.5316 12.1124 27.963C10.6575 27.4654 9.29862 26.6738 8.13338 25.6141C7.19746 27.5833 7.21286 29.9654 8.38382 31.9969C10.2745 35.2771 14.462 36.401 17.7368 34.5072L27.6195 28.7921C30.2012 27.2991 31.4449 24.3762 30.9294 21.5988C30.7909 20.8531 30.5257 20.1179 30.1256 19.4237C29.7255 18.7296 29.2225 18.132 28.6472 17.6392C26.5035 15.803 23.3544 15.4204 20.7726 16.9134L16.9452 19.127C15.8536 19.7583 14.4577 19.3837 13.8275 18.2903C13.1973 17.1969 13.5713 15.7988 14.6629 15.1675L24.5455 9.45236C25.6371 8.82108 27.0329 9.19572 27.6632 10.2891C27.9807 10.8401 28.0433 11.4684 27.8876 12.037C29.3426 12.5346 30.7014 13.3262 31.8667 14.3859C32.8026 12.4167 32.7872 10.0346 31.6162 8.00308C29.7255 4.72288 25.538 3.59899 22.2632 5.4928Z" fill="#FC4112"/>
</g>
<defs>
<clipPath id="clip0_1295_99">
<rect width="40" height="40" fill="white"/>
</clipPath>
</defs>
</svg>
