<svg width="100" height="100" viewBox="0 0 100 100" fill="none" xmlns="http://www.w3.org/2000/svg">
<path d="M82.4219 73.6328V9.96094H51.9531L17.3828 26.3672V89.2578H48.8281L82.4219 73.6328Z" fill="white"/>
<path fill-rule="evenodd" clip-rule="evenodd" d="M49.9522 3.83317C63.5973 -4.05775 81.0451 0.625072 88.9231 14.2926C94.8849 24.6357 93.6576 37.1603 86.794 46.0611C92.3018 59.1447 87.3493 74.5954 74.7543 81.8791L50.0478 96.1668C36.4027 104.058 18.9549 99.3749 11.0769 85.7075C5.11505 75.3643 6.34244 62.8397 13.2061 53.9389C7.69815 40.8553 12.6507 25.4046 25.2457 18.121L49.9522 3.83317ZM55.658 13.732L30.9514 28.0198C24.4971 31.7523 21.3877 39.0594 22.6766 46.0031C23.0227 47.8672 23.6857 49.7052 24.6861 51.4408C25.6863 53.1761 26.9437 54.67 28.3821 55.9021C33.7413 60.4926 41.614 61.4491 48.0686 57.7164L57.6371 52.1825C60.3661 50.6043 63.8557 51.5408 65.4313 54.2743C67.0069 57.0078 66.0719 60.5031 63.3429 62.0813L38.6363 76.3691C35.9073 77.9473 32.4177 77.0107 30.8421 74.2772C30.0482 72.8999 29.8917 71.329 30.281 69.9076C26.6436 68.6636 23.2465 66.6844 20.3334 64.0353C17.9936 68.9582 18.0321 74.9136 20.9595 79.9923C25.6863 88.1928 36.155 91.0025 44.342 86.268L69.0486 71.9802C75.5029 68.2477 78.6123 60.9406 77.3234 53.9969C76.9773 52.1328 76.3143 50.2948 75.3139 48.5592C74.3137 46.8239 73.0563 45.33 71.6179 44.0979C66.2587 39.5074 58.386 38.5509 51.9314 42.2836L42.3629 47.8175C39.6339 49.3957 36.1443 48.4592 34.5687 45.7257C32.9931 42.9922 33.9281 39.4969 36.6571 37.9187L61.3637 23.6309C64.0927 22.0527 67.5823 22.9893 69.1579 25.7228C69.9518 27.1002 70.1083 28.671 69.719 30.0924C73.3564 31.3364 76.7535 33.3156 79.6666 35.9647C82.0064 31.0418 81.9679 25.0864 79.0405 20.0077C74.3137 11.8072 63.845 8.99748 55.658 13.732Z" fill="#FC4112"/>
</svg>
