<svg width="40" height="40" viewBox="0 0 40 40" fill="none" xmlns="http://www.w3.org/2000/svg">
<path d="M0 3.125C0 1.39911 1.39911 0 3.125 0H36.875C38.6009 0 40 1.39911 40 3.125V36.875C40 38.6009 38.6009 40 36.875 40H3.125C1.39911 40 0 38.6009 0 36.875V3.125Z" fill="#3178C6"/>
<path d="M21.9295 20.5707H16.344V36.5626H11.9192V20.5707H6.36096V16.979H21.9295V20.5707Z" fill="white"/>
<path d="M23.3842 35.8114V31.4412C24.1763 32.1058 25.0366 32.6066 25.9653 32.9434C26.8939 33.2712 27.8317 33.4351 28.7786 33.4351C29.3339 33.4351 29.8164 33.385 30.2262 33.2849C30.645 33.1847 30.9909 33.0482 31.264 32.8752C31.5463 32.6931 31.7557 32.4837 31.8922 32.247C32.0288 32.0012 32.0971 31.7371 32.0971 31.4549C32.0971 31.0725 31.9878 30.7311 31.7694 30.4306C31.5508 30.1302 31.2504 29.8525 30.868 29.5976C30.4947 29.3426 30.0486 29.0968 29.5296 28.8601C29.0107 28.6234 28.4508 28.3822 27.8499 28.1363C26.3204 27.499 25.1778 26.7206 24.4221 25.801C23.6755 24.8815 23.3022 23.7708 23.3022 22.4688C23.3022 21.4491 23.5071 20.5751 23.9168 19.8468C24.3265 19.1093 24.8818 18.5038 25.5829 18.0304C26.293 17.557 27.1124 17.211 28.0411 16.9925C28.9697 16.7649 29.953 16.6511 30.9909 16.6511C32.0106 16.6511 32.912 16.7148 33.6949 16.8423C34.487 16.9606 35.2154 17.1473 35.88 17.4022V21.4856C35.5522 21.2579 35.1926 21.0576 34.8011 20.8846C34.4187 20.7117 34.0227 20.5706 33.613 20.4613C33.2033 20.343 32.7936 20.2564 32.3839 20.2018C31.9833 20.1472 31.6009 20.1199 31.2367 20.1199C30.736 20.1199 30.2808 20.17 29.8711 20.2701C29.4614 20.3612 29.1154 20.4932 28.8332 20.6662C28.5509 20.8391 28.3324 21.0485 28.1776 21.2944C28.0229 21.5311 27.9455 21.7996 27.9455 22.1001C27.9455 22.4278 28.032 22.7238 28.205 22.9878C28.378 23.2427 28.6238 23.4885 28.9424 23.7252C29.2611 23.9528 29.648 24.1804 30.1032 24.4081C30.5584 24.6266 31.0728 24.8542 31.6464 25.0909C32.4294 25.4186 33.1304 25.7692 33.7496 26.1424C34.3778 26.5066 34.9149 26.9209 35.361 27.3852C35.8072 27.8495 36.1486 28.3822 36.3853 28.983C36.622 29.5748 36.7404 30.2668 36.7404 31.0588C36.7404 32.1514 36.531 33.0709 36.1122 33.8175C35.7024 34.5549 35.1425 35.1558 34.4324 35.6202C33.7222 36.0754 32.8937 36.4031 31.9469 36.6034C31.0091 36.8037 30.0168 36.9039 28.9697 36.9039C27.8954 36.9039 26.8712 36.8128 25.897 36.6307C24.9319 36.4486 24.0943 36.1755 23.3842 35.8114Z" fill="white"/>
</svg>
