<svg xmlns="http://www.w3.org/2000/svg" width="40" height="40" fill="none"><g clip-path="url(#E)"><mask id="A" maskUnits="userSpaceOnUse" x="0" y="0" width="40" height="40" mask-type="alpha"><path fill-rule="evenodd" d="M28.365 39.727a2.49 2.49 0 0 0 1.984-.076l8.235-3.963A2.5 2.5 0 0 0 40 33.435V6.565a2.5 2.5 0 0 0-1.416-2.253L30.349.349a2.49 2.49 0 0 0-2.544.229c-.105.076-.204.161-.298.255L11.742 15.217l-6.867-5.213c-.639-.485-1.533-.445-2.127.095L.545 12.102a1.67 1.67 0 0 0-.002 2.465L6.499 20 .543 25.433a1.67 1.67 0 0 0 .002 2.465l2.203 2.003c.594.54 1.488.58 2.127.095l6.867-5.213 15.766 14.383c.249.25.542.438.857.56zm1.641-28.807L18.044 20l11.962 9.08V10.919z" fill="#fff"/></mask><g mask="url(#A)"><path d="M38.585 4.319L30.343.35A2.49 2.49 0 0 0 27.5.833L.519 25.433c-.726.662-.725 1.804.002 2.465l2.204 2.003c.594.54 1.489.58 2.128.095L37.344 5.348A1.66 1.66 0 0 1 40 6.667v-.096a2.5 2.5 0 0 0-1.415-2.253z" fill="#0065a9"/><g filter="url(#B)"><path d="M38.585 35.681l-8.242 3.968a2.49 2.49 0 0 1-2.843-.483L.519 14.567c-.726-.662-.725-1.804.002-2.465l2.204-2.004c.594-.54 1.489-.58 2.128-.095l32.491 24.648A1.66 1.66 0 0 0 40 33.333v.096a2.5 2.5 0 0 1-1.415 2.252z" fill="#007acc"/></g><g filter="url(#C)"><path d="M30.343 39.65c-.954.459-2.094.265-2.843-.484.923.923 2.5.269 2.5-1.036V1.869C30 .564 28.423-.089 27.5.833c.749-.749 1.889-.943 2.843-.484l8.24 3.963A2.5 2.5 0 0 1 40 6.565v26.87a2.5 2.5 0 0 1-1.417 2.253l-8.24 3.963z" fill="#1f9cf0"/></g><g style="mix-blend-mode:overlay" opacity=".25"><path style="mix-blend-mode:overlay" opacity=".25" fill-rule="evenodd" d="M28.341 39.727a2.49 2.49 0 0 0 1.984-.076l8.235-3.963a2.5 2.5 0 0 0 1.416-2.253V6.565a2.5 2.5 0 0 0-1.416-2.253L30.325.349a2.49 2.49 0 0 0-2.544.229c-.105.076-.204.161-.298.255L11.718 15.216l-6.867-5.213c-.639-.485-1.533-.445-2.127.095L.521 12.102a1.67 1.67 0 0 0-.002 2.465L6.475 20 .519 25.433a1.67 1.67 0 0 0 .002 2.465l2.203 2.003c.594.54 1.488.58 2.127.095l6.867-5.213 15.766 14.383c.249.249.542.437.857.56zm1.641-28.807L18.019 20l11.962 9.081V10.919z" fill="url(#D)"/></g></g></g><defs><filter id="B" x="-8.358" y="1.331" width="56.691" height="46.898" filterUnits="userSpaceOnUse" color-interpolation-filters="sRGB"><feFlood flood-opacity="0" result="A"/><feColorMatrix in="SourceAlpha" values="0 0 0 0 0 0 0 0 0 0 0 0 0 0 0 0 0 0 127 0"/><feOffset/><feGaussianBlur stdDeviation="4.167"/><feColorMatrix values="0 0 0 0 0 0 0 0 0 0 0 0 0 0 0 0 0 0 0.25 0"/><feBlend mode="overlay" in2="A"/><feBlend in="SourceGraphic"/></filter><filter id="C" x="19.167" y="-8.23" width="29.167" height="56.461" filterUnits="userSpaceOnUse" color-interpolation-filters="sRGB"><feFlood flood-opacity="0" result="A"/><feColorMatrix in="SourceAlpha" values="0 0 0 0 0 0 0 0 0 0 0 0 0 0 0 0 0 0 127 0"/><feOffset/><feGaussianBlur stdDeviation="4.167"/><feColorMatrix values="0 0 0 0 0 0 0 0 0 0 0 0 0 0 0 0 0 0 0.25 0"/><feBlend mode="overlay" in2="A"/><feBlend in="SourceGraphic"/></filter><linearGradient id="D" x1="19.976" y1=".103" x2="19.976" y2="39.897" gradientUnits="userSpaceOnUse"><stop stop-color="#fff"/><stop offset="1" stop-color="#fff" stop-opacity="0"/></linearGradient><clipPath id="E"><path fill="#fff" d="M0 0h40v40H0z"/></clipPath></defs></svg>